/* XPM */
static char *magick[] = {
/* columns rows colors chars-per-pixel */
"40 56 11 1",
"  c gray0",
". c #790028",
"X c #696150",
"o c #be1410",
"O c #8d8169",
"+ c #dede00",
"@ c #a59985",
"# c #b6aa95",
"$ c #d6bea5",
"% c #eedebe",
"& c #ffead6",
/* pixels */
"    #%%%%%%%%%%%%%%%%%%%%%%%%%%%%%%%%%%&",
"   @@#$$$$$$$o$$$$$$$$$$$$$$$$$$$$$$$$%%",
"  @O@$$$$$$$$o$$$$$$$$$$$$$$$$$$$...$$$%",
" @OO@$$$$$o$oo$oo$$$$$$$$$$$$$$$.$$$.$$%",
"@OOO@$$$$$oooooo$$$$$$$$o$$$$$$$.$$$$$$%",
"XOOO@$$$$o$$oooo$$$$$$$ooo$$$$$$.$$$$$$%",
"XOOO@$$$$$oo$oo$o$$$$$ooooo$$$$$.$$$$$$%",
"XOOO@$$$$$$$$oo$$o$$$ooooooo$$$$.$$$.$$%",
"XOOO@$$$$$$$$oo$$$$$$oooo..oo$$$$...$+$%",
"XOOO@$$$$$$$$ooo$$$$ooooo..oooo$$$$$++$%",
"XOOO@$$$$$$$$ooo$$$$ooooooooo$o$$$$+$$+%",
"XOOO@$$$$$$$$oooo$$$oooooooo$$$$$++$$++%",
"XOOO@$$o$$$$$$ooo$$$ooooo$oo$+++++$++$$%",
"XOOO@$o$$$$$$$oooo$ooooo$$oo$$$$++++$$$%",
"XOOO@$o$oo$$$$$ooooooooo$$$oo$$$$++++++%",
"XOOO@$o$o$$$$$$$oooooooo$$$$$$$$$$$$$$$%",
"XOOO@$$o$$$$$$$$ooooooooo$$$$$$$$$$$$$$%",
"XOOO@oooo$$$$$$$oooooooooo$$$$$$$$$$$$$%",
"XOOO@$oooooo$$$$$oooooooooooo$$$$$$$$$$%",
"XOOO@o$ooooooo$$$oooooooooooooo$$$$$$$$%",
"XOOO@$$oooooooo$$$oooooooooooooo$$$$$$$%",
"XOOO@$o$$$ooooo$$ooooooooooooooooo$$$$$%",
"XOOO@$$$$$$ooooooooooooooooooooooo$$$$$%",
"XOOO@$$$$$$$ooooooooooooooo$$$ooooo$$$$%",
"XOOO@$$$$$$$oooooooooooo$o$$$$$$oooo$$$%",
"XOOO@$$$$$$$$oooooooooooo$$$$$$$$oooo$$%",
"XOOO@$$$$$$$$$ooooooooooo$$$$$$$$oooo$$%",
"XOOO@$$$$$$$$$$ooooooooo$$$$$$$$$$$oooo%",
"XOOO@$$$$$$$$$$oooooooooo$$$$$$$$ooooo$%",
"XOOO@$$$$$$ooo$$ooooooooo$$$$$$$$$o$$oo%",
"XOOO@$$$$$ooo$$$oooooooooo$$$$$$$o$$o$o%",
"XOOO@$$$$ooo$$$$ooooooooooo$$$$$$$$$$$$%",
"XOOO@$$$ooo$$$$$$ooooooooooo$$$$$$$$$$$%",
"XOOO@$$ooo$$$$$$$ooooooooooo$$$$$$$$$$$%",
"XOOO@$$ooo$$$$$$$$ooooo$ooooo$$$$$$$$$$%",
"XOOO@$oooo$$$$$$$$ooooo$$oooo$$$$$$$$$$%",
"XOOO@$oooo$$$$$$$oooooo$$$oooo$$$$$$$$$%",
"XOOO@$oooo$$$$$$$oooooo$$$$ooo$$$$$$$$$%",
"XOOO@$oooooo$$$$ooooooo$$$$$oo$$$$$$$$$%",
"XOOO@$$ooooooooooooooo$$$$$$ooo$$$$$$$$%",
"XOOO@$$ooooooooooooooo$$$$$$oooooo$$$$$%",
"XOOO@$$$ooooooooooooo$$$$$$oooo$$o$$$$$%",
"XOOO@$$$$ooooooooooo$$$$$$oooooo$$$$$$$%",
"XOOO@$$$$$$oooooooo$$$$$$$$$o$oooo$$$$$%",
"XOOO@$$$$$$$$oooo$$$$$$$$$$$o$o$$$$$$$$%",
"XOOO@$$$$$$$$$$$$$$$$$$$$$$$$$$$$$$$$$$%",
"XOOO@$$$$$$$$$$$$$$$$$$$$$$$$$$$$$$$$$$%",
"XOOO@$$$$$$$$$$$$$$$$$$$$$$$$$$$$$$$$$$%",
"XOOO@$$$$$$$$$$$$$$$$$$$$$$$$$$$$$$$$$$%",
"XOOO@$$$$$$$$$$$$$$$$$$$$$$$$$$$$$$$$$$%",
"XOOO@@$$$$$$$$$$$$$$$$$$$$$$$$$$$$$$$$#%",
"XOOOO@@@@@@@@@@@@@@@@@@@@@@@@@@@@@@@@@@#",
"XOOXOOOOOOOOOOOOOOOOOOOOOOOOOOOOOOOOOO@ ",
"XOXOOOOOOOOOOOOOOOOOOOOOOOOOOOOOOOOOO@  ",
"XXOOOOOOOOOOOOOOOOOOOOOOOOOOOOOOOOOO@   ",
"XXXXXXXXXXXXXXXXXXXXXXXXXXXXXXXXXXX@    "
};
