/* XPM */
static char *magick[] = {
/* columns rows colors chars-per-pixel */
"40 56 12 1",
"  c gray0",
". c #790028",
"X c #696150",
"o c #8d8169",
"O c #dede00",
"+ c #a59985",
"@ c #b6aa95",
"# c #c6b295",
"$ c #d6bea5",
"% c #eedebe",
"& c #d6d6de",
"* c #ffead6",
/* pixels */
"    @%%%%%%%%%%%%%%%%%%%%%%%%%%%%%%%%%%*",
"   ++@$$$$$$$$$$$$$$$$$$$$$$$$$$$$$$$$%%",
"  +o+$$$$$$$$$$$$$$$$$$$$$$$$$....$$$$$%",
" +oo+$$$$$$$$$$$$$$$$$$$$$$$$$.$$$.$$$$%",
"+ooo+$$&$&$$&$$$$$$$$$$$$$$$$$.$$$.$$$$%",
"Xooo+$$$&$&&$$$$$$$$$$$$$$$$$$....$$$$$%",
"Xooo+$$$&$&$$$$$$$$$$$$$$$$$$$.$$$$$$$$%",
"Xooo+$&$&&&$$&$$$$$$$$$$$$$$$$.$$$$$$$$%",
"Xooo+$$&&$&&&$$$$$$$$$$$$$$$$$.$$$$$$$$%",
"Xooo+$$$$&&$$$$$$$$&&$$$$$$$$$.$$$$$$$$%",
"Xooo+$$$&&&$$$$$$&&&&&&$$$$$$$$$$$O$$$$%",
"Xooo+$$$&&&$$$$$&&&&&O&&$$$$$$$$$OO$$$$%",
"Xooo+$$&&&&$$$$&&&#&&&&&&&$$$$$$OO$$$$$%",
"Xooo+$&&&&$$$$&&&&&&&&&&&&&$$OOO$$$$$$$%",
"Xooo+$&&#&$$$&&&&&&&&&$$$O$$OO$$$OOOO$$%",
"Xooo+$&&&&$$&&&&&&&$&&&&$$OOOOOOO$$$$$$%",
"Xooo+&&&&$$$&&&#&&$$$$&&&&$$$OOOOO$$$$$%",
"Xooo+&&&&$$&&&&&&$$$$$$$$$$$$$$$$OOO$$$%",
"Xooo+&&&&&$&&#&&&$$$&$$$&$$$$$$$$$$$$$$%",
"Xooo+&&#&&&&&&&&$$&$$&$&$$$$$$$$$$$$$$$%",
"Xooo+$&&&&&&&&&&$$$&$&&$$&$$$$$$$$$$$$$%",
"Xooo+$&&&&&&#&&&$$$$&&$&&$$$$$$$$$$$$$$%",
"Xooo+$&&&&&&&&&&$$$$&&&$$$$$$$$$$$$$$$$%",
"Xooo+$$&&&&&&&&&&$$&&&&&&$$$$$&&&$$$$$$%",
"Xooo+$$&&&#&&&&&&&&&&&&$$$$$&&&&&&&$$$$%",
"Xooo+$$$&&&&&&&#&&&&&$$&$$$&&&&&&&&&$$$%",
"Xooo+$$$&&&&&&&&&&&$$$$$$$&&$$$$&&&&&$$%",
"Xooo+$$$&&&#&&&&&$$$$$$$$$$$$$$$$&&&&&$%",
"Xooo+$$$&&&&&&&&$$$$&$$&&$$$$$$$$$&&#&$%",
"Xooo+$$$&&&&&&&&$$$$$&$&$$&$$$$$$$$&&&&%",
"Xooo+$$$&&&&&&&&$$$$&&&&&&$$$$$$$$$&&&&%",
"Xooo+$$$&&&&&&&&$$&&$$&&&&$$$$$$$$$&&&&%",
"Xooo+$$$&&#&&#&&$$$$$&$$&&&$$$$$$$$&&&&%",
"Xooo+$$$&&&&&&&&&&$$&$$$&&&&$$$$$$$&&#&%",
"Xooo+$$$&&&&&&&&&&&$$$$$$&&&$$$$$$$&&&&%",
"Xooo+$$$$&&&&&&&&&&&&&$$&&&&$$$$$$&&&&&%",
"Xooo+$$$$&&&&&&&&&&&&&&&&&#&$$$$$$&&&&$%",
"Xooo+$$$&&&&&&#&&&&&&&&&&&&$$$$$$&&&#&$%",
"Xooo+$$$&&&&&&&&&&&&&&&&$$$$$$$$&&&&&&$%",
"Xooo+$$&&&&&&&&&&&&&&&$$$$$$$$$&&&&&&$$%",
"Xooo+$$&&#&&&&&&&&#&&&&$$$$$$$&&&#&&$$$%",
"Xooo+$$&&&&&$$&&&&&&&&&&$$$$$&&&&&&$$$$%",
"Xooo+$$&&&&$$$$&&&&&&&#&&&&&&&&&&&&$$$$%",
"Xooo+$$$&&&$$$$$&&&&&&&&&&&&&&&&&&$$$$$%",
"Xooo+$$$$&&$$$$$$$&&&&&&&&&&&&&&&$$$$$$%",
"Xooo+$$$$&&$$$$$$$$$&&&&&&&&&&&&$$$$$$$%",
"Xooo+$&&&&&$$$$$$$$$$&&&&&&&&&&$$$$$$$$%",
"Xooo+$$$&&&&$$$$$$$$$$$$&&&&$$$$$$$$$$$%",
"Xooo+$&&&&&&&&$$$$$$$$$$$$$$$$$$$$$$$$$%",
"Xooo+$&$$$&$$&&$$$$$$$$$$$$$$$$$$$$$$$$%",
"Xooo++$$&$$&$$$$$$$$$$$$$$$$$$$$$$$$$$@%",
"Xoooo++++++++++++++++++++++++++++++++++@",
"XooXoooooooooooooooooooooooooooooooooo+ ",
"XoXoooooooooooooooooooooooooooooooooo+  ",
"XXoooooooooooooooooooooooooooooooooo+   ",
"XXXXXXXXXXXXXXXXXXXXXXXXXXXXXXXXXXX+    "
};
