/* XPM */
static char *magick[] = {
/* columns rows colors chars-per-pixel */
"40 56 15 1",
"  c gray0",
". c #007d10",
"X c #696150",
"o c #18c648",
"O c #8d4000",
"+ c #955d00",
"@ c #d65dd6",
"# c #8d8169",
"$ c #dede00",
"% c #a59985",
"& c #b6aa95",
"* c #d6bea5",
"= c #ffc695",
"- c #eedebe",
"; c #ffead6",
/* pixels */
"    &----------------------------------;",
"   %%&********************************--",
"  %#%**********************************-",
" %##%***************************=@*****-",
"%###%*************************===@*****-",
"X###%************************===@******-",
"X###%********************O**===@@******-",
"X###%*******************O***.=@@*******-",
"X###%*******************O***..@********-",
"X###%*******************O**O***********-",
"X###%*******************O*O************-",
"X###%********@===*****o*OO*************-",
"X###%********@====***oo*O***=*==*******-",
"X###%*********@=.=.*ooo*O**==@==@******-",
"X###%*********@@@..*oo**O**==@==@******-",
"X###%**********@@.+*o**O****@@=@==@****-",
"X###%**************+***+**===@$====@***-",
"X###%**************+**O**@===$$$@==****-",
"X###%***************+*O***@@@=$==@*****-",
"X###%*********ooo****O***+**==@*==@****-",
"X###%********ooo*****O**+***==@*==*****-",
"X###%********ooo*****O*+****@@*********-",
"X###%*******ooo*****O*+**oo************-",
"X###%*******ooo****O***ooooo***********-",
"X###%*******ooo***=O****ooooo**********-",
"X###%********o==*==@*****ooooo*********-",
"X###%*********==@==@*******ooo*********-",
"X###%*********==@=@===*******o*********-",
"X###%********==@@$====@****************-",
"X###%*******@===$$$=@@*****************-",
"X###%********@@@=$===******************-",
"X###%******ooo**==@==@*****************-",
"X###%*****oooo*===@*@@*****************-",
"X###%****oooo***@@oo*******************-",
"X###%****ooo****O*oo*******************-",
"X###%*****oo***O*ooo*******************-",
"X###%******o**O**oooo******************-",
"X###%********O***oooo******************-",
"X###%********O***oooo******************-",
"X###%*******O*****ooo******************-",
"X###%******O********oo*****************-",
"X###%******O***************************-",
"X###%*****O****************************-",
"X###%****O****...**********************-",
"X###%****O****.**.*.*******************-",
"X###%***O*****.**.*.***.**.*.***.******-",
"X###%***O*****...**.***.**.*..*..******-",
"X###%*********.****.***.**.*.*.*.******-",
"X###%*********.****.***.**.*.***.******-",
"X###%*********.****...**..**.***.******-",
"X###%%********************************&-",
"X####%%%%%%%%%%%%%%%%%%%%%%%%%%%%%%%%%%&",
"X##X##################################% ",
"X#X##################################%  ",
"XX##################################%   ",
"XXXXXXXXXXXXXXXXXXXXXXXXXXXXXXXXXXX%    "
};
