/* XPM */
static char *magick[] = {
/* columns rows colors chars-per-pixel */
"40 56 13 1",
"  c gray0",
". c #007d10",
"X c #790028",
"o c #696150",
"O c #18c648",
"+ c #be1410",
"@ c #8d8169",
"# c #dede00",
"$ c #a59985",
"% c #b6aa95",
"& c #d6bea5",
"* c #eedebe",
"= c #ffead6",
/* pixels */
"    %**********************************=",
"   $$%&&&&&&&&&&&&&&&&&&&&&&&&&&&&&&&&**",
"  $@$&&&&XXXX&&&&&&&&&&&&&&&&&&&&&&&&&&*",
" $@@$&&&&X&&&&&&&&&&&&&&&&&&&&&&&&&&&&&*",
"$@@@$&&&&X&&&&&&&&&&&&&&&&&&&&&&&&&&&&&*",
"o@@@$&&&&XXX&&&&&&&&&&&&&&&&&&&&&&&&&..*",
"o@@@$&&&&X&&&&&&&&&&&&&&&&&&&&&&&.....&*",
"o@@@$&&&&X&&&&&&&&&&&&&&&&&&&&&&..O.&&&*",
"o@@@$&&&&X&&&&&&&&&&&&&&&&&&&&&....&&&&*",
"o@@@$&####&&&&&&&&&&&&&&&&&&&&..O.&&&&&*",
"o@@@$&#&&&&&&&&&&&&&&&&&&&&&&&....&&&&&*",
"o@@@$#&&&&&&&&&&&&&&&&&&&&&&&&....&&&&&*",
"o@@@$+&+&&&&&&&&&&&&&&&&&&&&.&&.O..&&&&*",
"o@@@$#&#&&&&&&&&&&&&&&&&&&.&&.&.....&&&*",
"o@@@$+&&&&&&&&&&&&&&&&&&&&&.&..&....&&&*",
"o@@@$+&..&&&&...&&&&.&&&.&&&..&&..O..&&*",
"o@@@$##&..&&.....&&&&.&.&&&...&&&.....&*",
"o@@@$+##&....#...&&.&...&.&&...&&..O..&*",
"o@@@$#&++&........&&.....&&....&&&....&*",
"o@@@$+#+&+&.......&&&O..&&&&..&&&&....&*",
"o@@@$&&.&.........&...O...&.O.&&&&&.O..*",
"o@@@$+&&...&....O..&&...&&....&&&&&....*",
"o@@@$&&&&&&&.......&&O.&&&....&&&&&.O..*",
"o@@@$&&&&&&&&.O....&&..&&..O.&&&&&&....*",
"o@@@$&&&&&&&&.....&&...&&....&&&&&&....*",
"o@@@$&&&&&&&&&..O.&....&.....&&&&&&.O..*",
"o@@@$&&&&&&&&.....&.O..&..O...&&&&.....*",
"o@@@$&&&&&&&&.....&...&&&...O..........*",
"o@@@$&&&&&&&..........&&&.............&*",
"o@@@$&&&&&&&...O.....&&&&&..O..O.O....&*",
"o@@@$&&&&&&......O..&&&&&............&&*",
"o@@@$&&&&...O.......&&&&&.....O.....&&&*",
"o@@@$&&&........O..&&&&&...O.......&&&&*",
"o@@@$&&&.....O......&&&...........&&&&&*",
"o@@@$&&...O......O........O.O....&&&&&&*",
"o@@@$&&.O....O..................&&&&&&&*",
"o@@@$&&..............O......O.....&&&&&*",
"o@@@$&.....&....O..O...O.......O...&&&&*",
"o@@@$&...&&&..............O.........&&&*",
"o@@@$&.O.&&&&.......O...............&&&*",
"o@@@$&...&&&&&..O........&&&&....O..&&&*",
"o@@@$&...&&&&&&......&&&&&&&&&&.....&&&*",
"o@@@$&....&&&&&&&&&&&&&&&&&&&&&&....&&&*",
"o@@@$...&.&&&&&&&&&&&&&&&&&&&&&&&...&&&*",
"o@@@$.&.&&.&&&&&&&&&&&&&&&&&&&&&&&...&.*",
"o@@@$&.&.&&&&&&&&&&&&&&&&&&&&&&&&&....&*",
"o@@@$&.&&.&&&&&&&&&&&&&&&&&&&&&&&......*",
"o@@@$&&&&&&&&&&&&&&&&&&&&&&&&&&&.&.&&.&*",
"o@@@$&&&&&&&&&&&&&&&&&&&&&&&&&&&&&.&&.&*",
"o@@@$&&&&&&&&&&&&&&&&&&&&&&&&&&&&&&.&&.*",
"o@@@$$&&&&&&&&&&&&&&&&&&&&&&&&&&&&&&&&%*",
"o@@@@$$$$$$$$$$$$$$$$$$$$$$$$$$$$$$$$$$%",
"o@@o@@@@@@@@@@@@@@@@@@@@@@@@@@@@@@@@@@$ ",
"o@o@@@@@@@@@@@@@@@@@@@@@@@@@@@@@@@@@@$  ",
"oo@@@@@@@@@@@@@@@@@@@@@@@@@@@@@@@@@@$   ",
"ooooooooooooooooooooooooooooooooooo$    "
};
