/* XPM */
static char *magick[] = {
/* columns rows colors chars-per-pixel */
"40 56 11 1",
"  c gray0",
". c #007d10",
"X c #790028",
"o c #696150",
"O c #8d4000",
"+ c #8d8169",
"@ c #a59985",
"# c #b6aa95",
"$ c #d6bea5",
"% c #eedebe",
"& c #ffead6",
/* pixels */
"    #%%%%%%%%%%%%%%%%%%%%%%%%%%%%%%%%%%&",
"   @@#$$$$$$$$$$$$$$$$$$$$$$$$$$$$$$$$%%",
"  @+@OOOO$$$$$$$$$$$$$O$$$$$$$$$$$$$$$$%",
" @++@O$$$O$$$$$$$$$$$$O$$$$$$$$$$$$$$$$%",
"@+++@O$$$O$$OO$$OO$O$$OOOO$$$OOO$$$OOO$%",
"o+++@OOOO$$$$$O$O$O$O$O$$$O$O$$$O$O$$$O%",
"o+++@O$$$O$$OOO$O$O$O$O$$$O$O$$$O$O$$$O%",
"o+++@O$$$O$O$$O$O$O$O$O$$$O$O$$$O$O$$$O%",
"o+++@O$$$O$$OOO$O$O$O$OOOO$$$OOO$$$OOO$%",
"o+++@OOOO$$$$$$$.$.$$.$.$$$$$$$$$$$$$$$%",
"o+++@$$$$$$$$$$$$.X..$.$.$$$.$$$$$$$$$$%",
"o+++@$$$$$$$$$$$.$X$$.$$$.$.$$$$$$$$$$$%",
"o+++@$$$$$$$$$$.$$X$$$.$$$.$$$$$$$$$$$$%",
"o+++@$$$$$$$$$.$.$$X$$$.$$$.$$$$$$$$$$$%",
"o+++@$$$$$$$$.$$$$$X$$.$.$$.$$$$.$$$$$$%",
"o+++@.$$$.$.$$.X$$$X$.$$.$$$$$$.$$.$$..%",
"o+++@$.$.$.$.$$X$$$X$$.X$.$$.$.$$$$..$$%",
"o+++@$$.$$$$$.$X$.X$$.$X.$$$$.$$$$.$$.$%",
"o+++@$.$$$$$.$$X.$X$$$$X$$$$.$$$..$$$$.%",
"o+++@.$.$$$$$$$.$$X$$$$X$...$.$$X$$$$.$%",
"o+++@$$$.$$$$$.X.$X$$.$X..$$$$.$X$$$.$$%",
"o+++@$$$X$$$$.$X$$X$$$.X$$$.$$$$X$$$$$$%",
"o+++@$$$$X$.$$.X$$XX$.$X$$.X.$$$X$$$$$$%",
"o+++@$$$$XX$.$$X$$$X.$$X$.$X$.$$X$$$$$$%",
"o+++@$$$.$X$$.$X$$$X$$$X$$$X$$$$X.$$$$$%",
"o+++@$$.$$$X$$$X$$$X$$$X$$$X$$$$X$.$$$$%",
"o+++@$.$$$$XX$$X$$.X$$.X$$$X$$$$X$$.$$$%",
"o+++@.$$$$$$X$$X$.$X$.$X$$X.$$$$X$$$.$$%",
"o+++@$$$$$$.$X$X.$$X$$$X$$X$.$$$X$$$$$$%",
"o+++@$$$$$.$$X$X$$$X$$$X$$X$$.$XX$$$$$$%",
"o+++@$$$$.$$$$X$$$XX$$$X$$X$$$$X.$$$$.$%",
"o+++@$$$$$$$$XX$$$X$$.XX$$X$$$$X$.$$.$$%",
"o+++@$$$$$$$$X$XX$X$.$X$.$X$$$$X$$..$$$%",
"o+++@$$$$$$$$X$$XXX$$$X$$X$$$$$X$$.$$$.%",
"o+++@$$$$$$$$X$$$X$$$$X$$X$$$$$X$$$.$.$%",
"o+++@$$$$$$$X$$$$X$$$$X$$X$$$.X$$$.$.$$%",
"o+++@$$$$$.X$$$$XXX$$XX$$X$$.$X$$.$$.$$%",
"o+++@$$.$.$X$$$$X$X$$X$$$X$$$$X$$$$.$.$%",
"o+++@$$$.$$X$$$XX$$X$X$$$X$$$$X$$$$$$$$%",
"o+++@$$.$$$X$$$X$$$X$X$$.$X$$$X$$$$$$$$%",
"o+++@$.$.$X$$$XX$$$$XX$.$$X$$XX.$$$$$$$%",
"o+++@$$$$$X$$$X$$$$.XX$$$$X$$X$$.$$$$$$%",
"o+++@$$$$$X$$XX$$$.$X$$$$$X.$X$$$.$.$$$%",
"o+++@$$$$$X$XX$$$.$$XX$$$X$$$X$$.$.$$$$%",
"o+++@$$$$$X$X$$$.$$$XXX$$X$$$X$.$$$.$$$%",
"o+++@$$$.X$$X$$.$.$$X$X$$X$.X.$$$$.$.$$%",
"o+++@$$.$X$XX$.$$$.$X$XX$X$$X$.$.$$$$$$%",
"o+++@..$$X$X$$$.$$$$X$$XX$$$X$$.$$$$$$$%",
"o+++@$$$$X$X$$$$$$$$$X$$XX$$X$$$.$$$$$$%",
"o+++@$$$$$$$$$$$$$$$$X$$XX$$X$$.$.$$$$$%",
"o+++@@$$$$$$$$$$$$$$$X$$$$$$X$$$$$$$$$#%",
"o++++@@@@@@@@@@@@@@@@@@@@@@@@@@@@@@@@@@#",
"o++o++++++++++++++++++++++++++++++++++@ ",
"o+o++++++++++++++++++++++++++++++++++@  ",
"oo++++++++++++++++++++++++++++++++++@   ",
"ooooooooooooooooooooooooooooooooooo@    "
};
