/* XPM */
static char *magick[] = {
/* columns rows colors chars-per-pixel */
"40 56 10 1",
"  c gray0",
". c #690061",
"X c #696150",
"o c #8d8169",
"O c #a59985",
"+ c #b6aa95",
"@ c #d6bea5",
"# c #ffc695",
"$ c #eedebe",
"% c #ffead6",
/* pixels */
"    +$$$$$$$$$$$$$$$$$$$$$$$$$$$$$$$$$$%",
"   OO+@@@@@@@@@@@@@@@@@@@@@@@@@@@@@@@@$$",
"  OoO@@....@@@@@@@@@@@@@@@@@@@@@@@@@@@@$",
" OooO@.@@@@.@@@@@@@@@@@@@@@@@@@@@@@@@@@$",
"OoooO@@@@@@.@@@@@@@@@@@@@@#####@@@@@@@@$",
"XoooO@@@@@@.@@@@@@@@@@@########@@@@@@@@$",
"XoooO@@@@@.@@@@@@@@@@##########@@@@@@@@$",
"XoooO@@@@.@@@@@@@@@@########@@@@@@@@@@@$",
"XoooO@@@.@@@@@@@@@@#####@@@@@@@@@@@@@@@$",
"XoooO@@.@@@@@@@@@@@##@@@@@@@@@@@@@@@@@@$",
"XoooO@.@@@@@@@@@@@@@@@@@@@@@@@@@@####@@$",
"XoooO@......@@@@@@@@@@@@@@@@@@#######@@$",
"XoooO@@@@@@@@@@@@@@@@@@@@@@@#########@@$",
"XoooO@@@@@@@@@@@@@@@@@@@@@########@@@@@$",
"XoooO@@@@@@@@@@@@@@@@@@########@@@@@@@@$",
"XoooO@@@@@@@@@@@@@@@#########@@@@@@@@@@$",
"XoooO@@@@@@@@@@@#########@@@@@@@@@@@@@@$",
"XoooO@@@@@@@@@#######@@@@@@@@@@@@@@@@@@$",
"XoooO@@@@@@@@@####@@@@@@@@@@@@@@@@@@@@@$",
"XoooO@@@@@@@@@@@@@@@@@@@@@@@@@@@@@@@@@@$",
"XoooO@@@@@@@@@@@@@@@@@@@@@@@@@@@@@@@@@@$",
"XoooO@@@@@@@@@@@@@@@@@@@@@@@@@@@@@@@@@@$",
"XoooO@@@@@@@@@@@@@@@@@@@@@@@@.....@@@@@$",
"XoooO@@@@@@@@@@@@@@@@@@@@.........@@@@@$",
"XoooO@@@@@@@@@@@@@@@@..........@@@@@@@@$",
"XoooO@@@@@@@.................@@@@@@@@@@$",
"XoooO@@@@@@@@@........@.@@@@@@@@@@@@@@@$",
"XoooO@@@@@@@@@@@@@@@@@...@@@@@@@@@@@@@@$",
"XoooO@@@@@@@@@@@@@@@@.....@@@@@@@@@@@@@$",
"XoooO@@@@@@@@@@@@@@@...@...@@@@@@@@@@@@$",
"XoooO@@@@@@@@@@@@@@....@@..@@@@@@@@@@@@$",
"XoooO@@@@@@@@@@@@@@...@@@...@@@@@@@@@@@$",
"XoooO@@@@@@@@@@@@@...@@@@@..@@@@@@@@@@@$",
"XoooO@@@@@@@@@@@@...@@@@@@...@@@@@@@@@@$",
"XoooO@@@@@@@@@@@...@@@@@@@@..@@@@@@@@@@$",
"XoooO@@@@@@@@@@...@@@@@@@@@...@@@@@@@@@$",
"XoooO@@@@@@@@@..@@@@@@@@@@@...@@@@@@@@@$",
"XoooO@@@@@@@...@@@@@@@@@@@@...@@@@@@@@@$",
"XoooO@@@@@@@@@@@@@@@@@@@@@@...@@@@@@@@@$",
"XoooO@@@@@@@@@@@@@@@@@@@@@@...@@@@@@@@@$",
"XoooO@@@@@@@@@@@@@@@@@@@@@@...@@@@@@@@@$",
"XoooO@@@@@@@@@@@@@@@@@@@@@@...@@@@@@@@@$",
"XoooO@@@@@@@@@@@@@@@@@@@@@@..@@@@@@@@@@$",
"XoooO@@@@@@@@@@@@@@@@@@@@@...@@@@@@@@@@$",
"XoooO@@@@@@@@@@@@@@@@@@.@@..@@@@@@@@@@@$",
"XoooO@@@@@@@@@@@@@@@@@@.....@@@@@@@@@@@$",
"XoooO@@@@@@@@@@@@@@@@@@@...@@@@@@@@@@@@$",
"XoooO@@@@@@@@@@@@@@@@@@@@@@@@@@@@@@@@@@$",
"XoooO@@@@@@@@@@@@@@@@@@@@@@@@@@@@@@@@@@$",
"XoooO@@@@@@@@@@@@@@@@@@@@@@@@@@@@@@@@@@$",
"XoooOO@@@@@@@@@@@@@@@@@@@@@@@@@@@@@@@@+$",
"XooooOOOOOOOOOOOOOOOOOOOOOOOOOOOOOOOOOO+",
"XooXooooooooooooooooooooooooooooooooooO ",
"XoXooooooooooooooooooooooooooooooooooO  ",
"XXooooooooooooooooooooooooooooooooooO   ",
"XXXXXXXXXXXXXXXXXXXXXXXXXXXXXXXXXXXO    "
};
