/* XPM */
static char *magick[] = {
/* columns rows colors chars-per-pixel */
"40 56 10 1",
"  c gray0",
". c #690061",
"X c #696150",
"o c #18c648",
"O c #8d8169",
"+ c #a59985",
"@ c #b6aa95",
"# c #d6bea5",
"$ c #eedebe",
"% c #ffead6",
/* pixels */
"    @$$$$$$$$$$$$$$$$$$$$$$$$$$$$$$$$$$%",
"   ++@################################$$",
"  +O+#.....################oooo########$",
" +OO+#.##########o######ooooo##########$",
"+OOO+#.#########oo#####ooooo###########$",
"XOOO+##...######oo#######ooo###########$",
"XOOO+#####.#####oo#######oo############$",
"XOOO+######.####oo####oo#oo############$",
"XOOO+######.####oo###oo##oo############$",
"XOOO+######.####oooooo###oo##oo########$",
"XOOO+#.###.#####ooooo####oooooo########$",
"XOOO+##...####ooooo###oooooooo#oo######$",
"XOOO+########ooooo###oooooo####oo######$",
"XOOO+######oooo#ooo#####oo####oo#######$",
"XOOO+###########ooo#####oo####oo#######$",
"XOOO+###########ooo####oo#####oo#######$",
"XOOO+###########ooo####oo####ooooooooo#$",
"XOOO+###########ooo####oo##ooooooo#####$",
"XOOO+###########ooo####oooooo##########$",
"XOOO+###########ooo###oooo#############$",
"XOOO+###########oo##oooo###############$",
"XOOO+#############oooo#################$",
"XOOO+#######################.....######$",
"XOOO+###################.........######$",
"XOOO+###############..........#########$",
"XOOO+######.................###########$",
"XOOO+########........#.################$",
"XOOO+################...###############$",
"XOOO+###############.....##############$",
"XOOO+##############...#...#############$",
"XOOO+#############....##..#############$",
"XOOO+#############...###...############$",
"XOOO+############...#####..############$",
"XOOO+###########...######...###########$",
"XOOO+##########...########..###########$",
"XOOO+#########...#########...##########$",
"XOOO+########..###########...##########$",
"XOOO+######...############...##########$",
"XOOO+#####################...##########$",
"XOOO+#####################...##########$",
"XOOO+#####################...##########$",
"XOOO+#####################...##########$",
"XOOO+#####################..###########$",
"XOOO+####################...###########$",
"XOOO+#################.##..############$",
"XOOO+#################.....############$",
"XOOO+##################...#############$",
"XOOO+##################################$",
"XOOO+##################################$",
"XOOO+##################################$",
"XOOO++################################@$",
"XOOOO++++++++++++++++++++++++++++++++++@",
"XOOXOOOOOOOOOOOOOOOOOOOOOOOOOOOOOOOOOO+ ",
"XOXOOOOOOOOOOOOOOOOOOOOOOOOOOOOOOOOOO+  ",
"XXOOOOOOOOOOOOOOOOOOOOOOOOOOOOOOOOOO+   ",
"XXXXXXXXXXXXXXXXXXXXXXXXXXXXXXXXXXX+    "
};
