/* XPM */
static char *magick[] = {
/* columns rows colors chars-per-pixel */
"40 56 10 1",
"  c gray0",
". c #690061",
"X c #696150",
"o c #50d2d6",
"O c #8d8169",
"+ c #a59985",
"@ c #b6aa95",
"# c #d6bea5",
"$ c #eedebe",
"% c #ffead6",
/* pixels */
"    @$$$$$$$$$$$$$$$$$$$$$$$$$$$$$$$$$$%",
"   ++@###############oo###############$$",
"  +O+###...##########ooo###############$",
" +OO+##.###.##########oooo#############$",
"+OOO+#.###############oooo#############$",
"XOOO+#.###############ooo##############$",
"XOOO+#.#...############oo####oooooo####$",
"XOOO+#..###.###########ooooooooooooo###$",
"XOOO+#.#####.##oooooooooooooooooooooo##$",
"XOOO+#.#####.###oooooooooooooo#########$",
"XOOO+##.###.###########################$",
"XOOO+###...###########oo#oo############$",
"XOOO+################ooo##oo###########$",
"XOOO+###############oooo###o###########$",
"XOOO+###############ooo####oo##########$",
"XOOO+###############ooo####ooo#########$",
"XOOO+##############ooo######oo#########$",
"XOOO+#############ooo#######ooo########$",
"XOOO+#############oo########oooo#######$",
"XOOO+############oo#########oooo#######$",
"XOOO+############o############oo#######$",
"XOOO+##################################$",
"XOOO+#######################.....######$",
"XOOO+###################.........######$",
"XOOO+###############..........#########$",
"XOOO+######.................###########$",
"XOOO+########........#.################$",
"XOOO+################...###############$",
"XOOO+###############.....##############$",
"XOOO+##############...#...#############$",
"XOOO+#############....##..#############$",
"XOOO+#############...###...############$",
"XOOO+############...#####..############$",
"XOOO+###########...######...###########$",
"XOOO+##########...########..###########$",
"XOOO+#########...#########...##########$",
"XOOO+########..###########...##########$",
"XOOO+######...############...##########$",
"XOOO+#####################...##########$",
"XOOO+#####################...##########$",
"XOOO+#####################...##########$",
"XOOO+#####################...##########$",
"XOOO+#####################..###########$",
"XOOO+####################...###########$",
"XOOO+#################.##..############$",
"XOOO+#################.....############$",
"XOOO+##################...#############$",
"XOOO+##################################$",
"XOOO+##################################$",
"XOOO+##################################$",
"XOOO++################################@$",
"XOOOO++++++++++++++++++++++++++++++++++@",
"XOOXOOOOOOOOOOOOOOOOOOOOOOOOOOOOOOOOOO+ ",
"XOXOOOOOOOOOOOOOOOOOOOOOOOOOOOOOOOOOO+  ",
"XXOOOOOOOOOOOOOOOOOOOOOOOOOOOOOOOOOO+   ",
"XXXXXXXXXXXXXXXXXXXXXXXXXXXXXXXXXXX+    "
};
