/* XPM */
static char *magick[] = {
/* columns rows colors chars-per-pixel */
"40 56 12 1",
"  c gray0",
". c #696150",
"X c #4865c6",
"o c #50d2d6",
"O c #be1410",
"+ c #8d8169",
"@ c #dede00",
"# c #a59985",
"$ c #b6aa95",
"% c #d6bea5",
"& c #eedebe",
"* c #ffead6",
/* pixels */
"    $&&&&&&&&&&&&&&&&&&&&&&&&&&&&&&&&&&*",
"   ##$%%%%%%%%%%%%%%%OO%%%%%%%%%%%%%%%&&",
"  #+#X%%%%%%%%%%%%%%%OO%%%%%%%%%%%%%%%X&",
" #++#XX%%%%%%%%%%%%%%OO%%%%%%%%%%%%%%XX&",
"#+++#XXX%%%%%%%%%%%%%OO%%%%%%%%%%%%%XXX&",
".+++#OXXX%%%%%%%%%%%%OO%%%%%%%%%%%%XXXO&",
".+++#OoXXXX%%%%%%%%%%OO%%%%%%%%%%XXXXoO&",
".+++#oo@XXXXX%%%%%%%%OO%%%%%%%%XXXXX@oo&",
".+++#o@O%%XXXXXX%%%%%OO%%%%%XXXXXX%%O@o&",
".+++#@O%%%%%XXXXXXX%%OO%%XXXXXXX%%%%%O@&",
".+++#O%%%%%%%%%XXXXXXOOXXXXXX%%%%%%%%%O&",
".+++#%%%%%%%%%%O@oXXXOOXXXo@O%%%%%%%%%%&",
".+++#%%%%%%%%%%O@ooooOOoooo@O%%%%%%%%%%&",
".+++#%%%%%%%%%%O@ooooOOoooo@O%%%%%%%%%%&",
".+++#%%%%%%%%%%O@ooooOOoooo@O%%%%%%%%%%&",
".+++#%%%%%%%%%%%O@oooOOooo@O%%%%%%%%%%%&",
".+++#%%%%%%%%%%%O@oooOOooo@O%%%%%%%%%%%&",
".+++#%%%%%%%%%%%O@oooOOooo@O%%%%%%%%%%%&",
".+++#%%%%%%%%%%%O@oooOOooo@O%%%%%%%%%%%&",
".+++#%%%%%%%%%%%O@oooOOooo@O%%%%%%%%%%%&",
".+++#%%%%%%%%%%%O@oooOOooo@O%%%%%%%%%%%&",
".+++#%%%%%%%%%%%%O@ooOOoo@O%%%%%%%%%%%%&",
".+++#%%%%%%%%%%%%O@ooOOoo@O%%%%%%%%%%%%&",
".+++#%%%%%%%%%%%%O@ooOOoo@O%%%%%%%%%%%%&",
".+++#%%%%%%%%%%%%O@ooOOoo@O%%%%%%%%%%%%&",
".+++#%%%%%%%%%%%%O@ooOOoo@O%%%%%%%%%%%%&",
".+++#%%%%%%%%%%%%%O@oOOo@O%%%%%%%%%%%%%&",
".+++#%%%%%%%%%%%%%O@oOOo@O%%%%%%%%%%%%%&",
".+++#%%%%%%%%%%%%%O@oOOo@O%%%%%%%%%%%%%&",
".+++#%%%%%%%%%%%%%O@oOOo@O%%%%%%%%%%%%%&",
".+++#%%%%%%%%%%%%%%O@OO@O%%%%%%%%%%%%%%&",
".+++#%%%%%%%%%%%%%%O@OO@O%%%%%%%%%%%%%%&",
".+++#%%%%%%%%%%%%%%O@OO@O%%%%%%%%%%%%%%&",
".+++#%%%%%%%%%%%%%%O@OO@O%%%%%%%%%%%%%%&",
".+++#%%%%%%%%%%%%%%O@OO@O%%%%%%%%%%%%%%&",
".+++#%%%%%%%%%%%%%%%OOOO%%%%%%%%%%%%%%%&",
".+++#%%%%%%%%%%%%%%%OOOO%%%%%%%%%%%%%%%&",
".+++#%%%%%%%%%%%%%%%%OO%%%%%%%%%%%%%%%%&",
".+++#%%%%%%%%%%%%%%%%%%%%%%%%%%%%%%%%%%&",
".+++#%%%%%%%%%%%%%XXXXXXX%%%%%%%%%%%%%%&",
".+++#%%%%%%%%%%%%XXXXXXXXX%%%%%%%%%%%%%&",
".+++#%%%%%%%%%%%XX%%%%%%%XX%%%%%%%%%%%%&",
".+++#%%%%%%%%%%%XX%%%%%%%%%%%%%%%%%%%%%&",
".+++#%%%%%%%%%%%XXX%%%%%%%%%%%%%%%%%%%%&",
".+++#%%%%%%%%%%%%XXXXXXXX%%%%%%%%%%%%%%&",
".+++#%%%%%%%%%%%%%XXXXXXXX%%%%%%%%%%%%%&",
".+++#%%%%%%%%%%%%%%%%%%%%XX%%%%%%%%%%%%&",
".+++#%%%%%%%%%%%%%%%%%%%%XX%%%%%%%%%%%%&",
".+++#%%%%%%%%%%%XX%%%%%%XXX%%%%%%%%%%%%&",
".+++#%%%%%%%%%%%%XXXXXXXXX%%%%%%%%%%%%%&",
".+++##%%%%%%%%%%%%XXXXXXX%%%%%%%%%%%%%$&",
".++++##################################$",
".++.++++++++++++++++++++++++++++++++++# ",
".+.++++++++++++++++++++++++++++++++++#  ",
"..++++++++++++++++++++++++++++++++++#   ",
"...................................#    "
};
