/* XPM */
static char *magick[] = {
/* columns rows colors chars-per-pixel */
"40 56 11 1",
"  c gray0",
". c #696150",
"X c #be1410",
"o c #8d8169",
"O c #858971",
"+ c #dede00",
"@ c #a59985",
"# c #b6aa95",
"$ c #d6bea5",
"% c #eedebe",
"& c #ffead6",
/* pixels */
"    #%%%%%%%%%%%%%%%%%%%%%%%%%%%%%%%%%%&",
"   @@#$$$$$$$$$$$$$$$$$$$$$$$$$$$$$$$$%%",
"  @o@$$$$$$$$$$$$$$$$$$$$$$$$$$$$$$$$$$%",
" @oo@$$$$$$$$$$$$$$$$$$$$$$$$$$$$$$$$$$%",
"@ooo@$$$$$$$$$$$$$$$$$$$$$$$$$$$$$$$$$$%",
".ooo@$$$$$$$$$$$$$$$$$$$$$$$$$$$$$$$$$$%",
".ooo@$$$$$$$$$$$$$$$$$$$$$$$$$$$$$$$$$$%",
".ooo@$$$$$$$$$$$$$$$$$$$$$$$$$$$$$$$$$$%",
".ooo@$$$$$$$$$$$$$$$$$$$$$$$$$$$$$$$$$$%",
".ooo@$$$$$$$$$$$$$$$$$$$$$$$$$$$$$$$$$$%",
".ooo@$$$$$$$$$$$$XXXX$$XXXX$$$$$$$$$$$$%",
".ooo@$$$$$$$$$$$XOO+OXXO+OOX$$$$$$$$$$$%",
".ooo@$$$$$$$$$$$XO+O+XX+O+OX$$$$$$$$$$$%",
".ooo@$$$$$$$$$$$$XO+OXXO+OX$$$$$$$$$$$$%",
".ooo@$$$$$X$X$$$$$XXXXXXXX$$$$$X$X$$$$$%",
".ooo@$$$$$$X$$$$$X+O+XX+O+X$$$$$X$$$$$$%",
".ooo@$$$$$X$X$$$$X+O+XX+O+X$$$$X$X$$$$$%",
".ooo@$$$$$$$$X$$$$XXXXXXXX$$$$X$$$$$$$$%",
".ooo@$$$$$$$$$X$$XXOOXXOOXX$$X$$$$$$$$$%",
".ooo@$$$$$$$$$$$XXO++XX++OXX$$$$$$$$$$$%",
".ooo@$$XX$$$$$$XXO+++XX+++OXX$$$$$$XX$$%",
".ooo@$XOOX$XX$XXO+++XXXX+++OXX$XX$XOOX$%",
".ooo@$XO+OX++XXO+++XOOOOX+++OXX++XO+OX$%",
".ooo@$X+O+XOOXO+++XOO++OOX+++OXOOX+O+X$%",
".ooo@$XO+OX++XO++XOO++++OOX++OX++XO+OX$%",
".ooo@$$XXXXXXXXXXXO++XX++OXXXXXXXXXXX$$%",
".ooo@$$XXXXXXXXXXXO++XX++OXXXXXXXXXXX$$%",
".ooo@$XO+OX++XO++XOO++++OOX++OX++XO+OX$%",
".ooo@$X+O+XOOXO+++XOO++OOX+++OXOOX+O+X$%",
".ooo@$XO+OX++XXO+++XOOOOX+++OXX++XO+OX$%",
".ooo@$XOOX$XX$XXO+++XXXX+++OXX$XX$XOOX$%",
".ooo@$$XX$$$$$$XXO+++XX+++OXX$$$$$$XX$$%",
".ooo@$$$$$$$$$$$XXO++XX++OXX$$$$$$$$$$$%",
".ooo@$$$$$$$$$X$$XXOOXXOOXX$$X$$$$$$$$$%",
".ooo@$$$$$$$$X$$$$XXXXXXXX$$$$X$$$$$$$$%",
".ooo@$$$$$X$X$$$$X+O+XX+O+X$$$$X$X$$$$$%",
".ooo@$$$$$$X$$$$$X+O+XX+O+X$$$$$X$$$$$$%",
".ooo@$$$$$X$X$$$$$XXXXXXXX$$$$$X$X$$$$$%",
".ooo@$$$$$$$$$$$$XO+OXXO+OX$$$$$$$$$$$$%",
".ooo@$$$$$$$$$$$XO+O+XX+O+OX$$$$$$$$$$$%",
".ooo@$$$$$$$$$$$XOO+OXXO+OOX$$$$$$$$$$$%",
".ooo@$$$$$$$$$$$$XXXX$$XXXX$$$$$$$$$$$$%",
".ooo@$$$$$$$$$$$$$$$$$$$$$$$$$$$$$$$$$$%",
".ooo@$$$$$$$$$$$$$$$$$$$$$$$$$$$$$$$$$$%",
".ooo@$$$$$$$$$$$$$$$$$$$$$$$$$$$$$$$$$$%",
".ooo@$$$$$$$$$$$$$$$$$$$$$$$$$$$$$$$$$$%",
".ooo@$$$$$$$$$$$$$$$$$$$$$$$$$$$$$$$$$$%",
".ooo@$$$$$$$$$$$$$$$$$$$$$$$$$$$$$$$$$$%",
".ooo@$$$$$$$$$$$$$$$$$$$$$$$$$$$$$$$$$$%",
".ooo@$$$$$$$$$$$$$$$$$$$$$$$$$$$$$$$$$$%",
".ooo@@$$$$$$$$$$$$$$$$$$$$$$$$$$$$$$$$#%",
".oooo@@@@@@@@@@@@@@@@@@@@@@@@@@@@@@@@@@#",
".oo.oooooooooooooooooooooooooooooooooo@ ",
".o.oooooooooooooooooooooooooooooooooo@  ",
"..oooooooooooooooooooooooooooooooooo@   ",
"...................................@    "
};
