/* XPM */
static char *magick[] = {
/* columns rows colors chars-per-pixel */
"40 56 11 1",
"  c gray0",
". c #696150",
"X c #be1410",
"o c #8d8169",
"O c #858971",
"+ c #dede00",
"@ c #a59985",
"# c #b6aa95",
"$ c #d6bea5",
"% c #eedebe",
"& c #ffead6",
/* pixels */
"    #%%%%%%%%%%%%%%%%%%%%%%%%%%%%%%%%%%&",
"   @@#$$$$$$$$$$$$$$$$$$$$$$$$$$$$$$$$%%",
"  @o@$$$$$$$$$$$$$$$$$$$$$$$$$$$$$$$$$$%",
" @oo@$$$$$$$$$$$$$$$$$$$$$$$OOOOOO$$$$$%",
"@ooo@$$$$$$$$$$$$$$$$$$$$$$OO++++OO$$$$%",
".ooo@$$$$$$$$$$$$$$$$$$$$$OO+XXXX+OO$$$%",
".ooo@$$$$$$$$$$$$$$$$$$$$OO+XOOOOX+OO$$%",
".ooo@$$$$$$$$$$$$$$$$$$$OO+XOO++OOX+OO$%",
".ooo@$$$$$$$$$$$$$$$$$$$O+XOO++++OOX+O$%",
".ooo@$$$$$$$$$$$$$$$$$$$O+XO++XX++OX+O$%",
".ooo@$$$$$$$$$$$$$$$$$$$O+XO++XX++OX+O$%",
".ooo@$$$$$$$$$$$$$$$$$$$O+XOO++++OOX+O$%",
".ooo@$$$$$$$$$$$$$$$$$$$OO+XOO++OOX+OO$%",
".ooo@$$$$$$$$$$$$$$$$$$$$OO+XOOOOX+OO$$%",
".ooo@$$$$$$$$$$$$$$$$$$$$$OO+XXXX+OO$$$%",
".ooo@$$$$$$$$$$$$$$$$$$$$$$OO++++OO$$$$%",
".ooo@$$$$$$$$$$$$$$$$$$$$$$$OOOOOO$$$$$%",
".ooo@$$$$$$$$$$$$$$$$$$$$$$$$$$$$$$$$$$%",
".ooo@$$$$$$$$$$$$$$$$$$$$$$$$$$$$$$$$$$%",
".ooo@$$$$$$$$$$$$$$OOOOOO$$$$$$$$$$$$$$%",
".ooo@$$$$$$$$$$$$$OO++++OO$$$$$$$$$$$$$%",
".ooo@$$$$$$$$$$$$OO+XXXX+OO$$$$$$$$$$$$%",
".ooo@$$$$$$$$$$$OO+XOOOOX+OO$$$$$$$$$$$%",
".ooo@$$$$$$$$$$OO+XOO++OOX+OO$$$$$$$$$$%",
".ooo@$$$$$$$$$$O+XOO++++OOX+O$$$$$$$$$$%",
".ooo@$$$$$$$$$$O+XO++XX++OX+O$$$$$$$$$$%",
".ooo@$$$$$$$$$$O+XO++XX++OX+O$$$$$$$$$$%",
".ooo@$$$$$$$$$$O+XOO++++OOX+O$$$$$$$$$$%",
".ooo@$$$$$$$$$$OO+XOO++OOX+OO$$$$$$$$$$%",
".ooo@$$$$$$$$$$$OO+XOOOOX+OO$$$$$$$$$$$%",
".ooo@$$$$$$$$$$$$OO+XXXX+OO$$$$$$$$$$$$%",
".ooo@$$$$$$$$$$$$$OO++++OO$$$$$$$$$$$$$%",
".ooo@$$$$$$$$$$$$$$OOOOOO$$$$$$$$$$$$$$%",
".ooo@$$$$$$$$$$$$$$$$$$$$$$$$$$$$$$$$$$%",
".ooo@$$$$$$$$$$$$$$$$$$$$$$$$$$$$$$$$$$%",
".ooo@$$$$$OOOOOO$$$$$$$$$$$$$$$$$$$$$$$%",
".ooo@$$$$OO++++OO$$$$$$$$$$$$$$$$$$$$$$%",
".ooo@$$$OO+XXXX+OO$$$$$$$$$$$$$$$$$$$$$%",
".ooo@$$OO+XOOOOX+OO$$$$$$$$$$$$$$$$$$$$%",
".ooo@$OO+XOO++OOX+OO$$$$$$$$$$$$$$$$$$$%",
".ooo@$O+XOO++++OOX+O$$$$$$$$$$$$$$$$$$$%",
".ooo@$O+XO++XX++OX+O$$$$$$$$$$$$$$$$$$$%",
".ooo@$O+XO++XX++OX+O$$$$$$$$$$$$$$$$$$$%",
".ooo@$O+XOO++++OOX+O$$$$$$$$$$$$$$$$$$$%",
".ooo@$OO+XOO++OOX+OO$$$$$$$$$$$$$$$$$$$%",
".ooo@$$OO+XOOOOX+OO$$$$$$$$$$$$$$$$$$$$%",
".ooo@$$$OO+XXXX+OO$$$$$$$$$$$$$$$$$$$$$%",
".ooo@$$$$OO++++OO$$$$$$$$$$$$$$$$$$$$$$%",
".ooo@$$$$$OOOOOO$$$$$$$$$$$$$$$$$$$$$$$%",
".ooo@$$$$$$$$$$$$$$$$$$$$$$$$$$$$$$$$$$%",
".ooo@@$$$$$$$$$$$$$$$$$$$$$$$$$$$$$$$$#%",
".oooo@@@@@@@@@@@@@@@@@@@@@@@@@@@@@@@@@@#",
".oo.oooooooooooooooooooooooooooooooooo@ ",
".o.oooooooooooooooooooooooooooooooooo@  ",
"..oooooooooooooooooooooooooooooooooo@   ",
"...................................@    "
};
