/* XPM */
static char *magick[] = {
/* columns rows colors chars-per-pixel */
"40 56 11 1",
"  c gray0",
". c #696150",
"X c #be1410",
"o c #8d8169",
"O c #858971",
"+ c #dede00",
"@ c #a59985",
"# c #b6aa95",
"$ c #d6bea5",
"% c #eedebe",
"& c #ffead6",
/* pixels */
"    #%%%%%%%%%%%%%%%%%%%%%%%%%%%%%%%%%%&",
"   @@#$$OOOOOO$$$$$$$$$$$$$$$$OOOOOO$$%%",
"  @o@$$OO++++OO$$$$$$$$$$$$$$OO++++OO$$%",
" @oo@$OO+XXXX+OO$$$$$$$$$$$$OO+XXXX+OO$%",
"@ooo@OO+XOOOOX+OO$$$$$$$$$$OO+XOOOOX+OO%",
".ooo@O+XOO++OOX+O$$$$$$$$$$O+XOO++OOX+O%",
".ooo@O+XO+XX+OX+O$$$$$$$$$$O+XO+XX+OX+O%",
".ooo@O+XO+XX+OX+O$$$$$$$$$$O+XO+XX+OX+O%",
".ooo@O+XOO++OOX+O$$$$$$$$$$O+XOO++OOX+O%",
".ooo@OO+XOOOOX+OO$$$$$$$$$$OO+XOOOOX+OO%",
".ooo@$OO+XXXX+OO$$$$$$$$$$$$OO+XXXX+OO$%",
".ooo@$$OO++++OO$$$$OOOOOO$$$$OO++++OO$$%",
".ooo@$$$OOOOOO$$$$OO++++OO$$$$OOOOOO$$$%",
".ooo@$$$$$$$$$$$$OO+XXXX+OO$$$$$$$$$$$$%",
".ooo@$$$$$$$$$$$OO+XOOOOX+OO$$$$$$$$$$$%",
".ooo@$$$$$$$$$$$O+XOO++OOX+O$$$$$$$$$$$%",
".ooo@$$$$$$$$$$$O+XO+XX+OX+O$$$$$$$$$$$%",
".ooo@$$$$$$$$$$$O+XO+XX+OX+O$$$$$$$$$$$%",
".ooo@$$$$$$$$$$$O+XOO++OOX+O$$$$$$$$$$$%",
".ooo@$$$$$$$$$$$OO+XOOOOX+OO$$$$$$$$$$$%",
".ooo@$$$OOOOOO$$$OO+XXXX+OO$$$OOOOOO$$$%",
".ooo@$$OO++++OO$$$OO++++OO$$$OO++++OO$$%",
".ooo@$OO+XXXX+OO$$$OOOOOO$$$OO+XXXX+OO$%",
".ooo@OO+XOOOOX+OO$$$$$$$$$$OO+XOOOOX+OO%",
".ooo@O+XOO++OOX+O$$$$$$$$$$O+XOO++OOX+O%",
".ooo@O+XO+XX+OX+O$$$$$$$$$$O+XO+XX+OX+O%",
".ooo@O+XO+XX+OX+O$$$$$$$$$$O+XO+XX+OX+O%",
".ooo@O+XOO++OOX+O$$$$$$$$$$O+XOO++OOX+O%",
".ooo@OO+XOOOOX+OO$$$$$$$$$$OO+XOOOOX+OO%",
".ooo@$OO+XXXX+OO$$$OOOOOO$$$OO+XXXX+OO$%",
".ooo@$$OO++++OO$$$OO++++OO$$$OO++++OO$$%",
".ooo@$$$OOOOOO$$$OO+XXXX+OO$$$OOOOOO$$$%",
".ooo@$$$$$$$$$$$OO+XOOOOX+OO$$$$$$$$$$$%",
".ooo@$$$$$$$$$$$O+XOO++OOX+O$$$$$$$$$$$%",
".ooo@$$$$$$$$$$$O+XO+XX+OX+O$$$$$$$$$$$%",
".ooo@$$$$$$$$$$$O+XO+XX+OX+O$$$$$$$$$$$%",
".ooo@$$$$$$$$$$$O+XOO++OOX+O$$$$$$$$$$$%",
".ooo@$$$$$$$$$$$OO+XOOOOX+OO$$$$$$$$$$$%",
".ooo@$$$$$$$$$$$$OO+XXXX+OO$$$$$$$$$$$$%",
".ooo@$$$OOOOOO$$$$OO++++OO$$$$OOOOOO$$$%",
".ooo@$$OO++++OO$$$$OOOOOO$$$$OO++++OO$$%",
".ooo@$OO+XXXX+OO$$$$$$$$$$$$OO+XXXX+OO$%",
".ooo@OO+XOOOOX+OO$$$$$$$$$$OO+XOOOOX+OO%",
".ooo@O+XOO++OOX+O$$$$$$$$$$O+XOO++OOX+O%",
".ooo@O+XO+XX+OX+O$$$$$$$$$$O+XO+XX+OX+O%",
".ooo@O+XO+XX+OX+O$$$$$$$$$$O+XO+XX+OX+O%",
".ooo@O+XOO++OOX+O$$$$$$$$$$O+XOO++OOX+O%",
".ooo@OO+XOOOOX+OO$$$$$$$$$$OO+XOOOOX+OO%",
".ooo@$OO+XXXX+OO$$$$$$$$$$$$OO+XXXX+OO$%",
".ooo@$$OO++++OO$$$$$$$$$$$$$$OO++++OO$$%",
".ooo@@$$OOOOOO$$$$$$$$$$$$$$$$OOOOOO$$#%",
".oooo@@@@@@@@@@@@@@@@@@@@@@@@@@@@@@@@@@#",
".oo.oooooooooooooooooooooooooooooooooo@ ",
".o.oooooooooooooooooooooooooooooooooo@  ",
"..oooooooooooooooooooooooooooooooooo@   ",
"...................................@    "
};
