/* XPM */
static char *magick[] = {
/* columns rows colors chars-per-pixel */
"40 56 11 1",
"  c gray0",
". c #696150",
"X c #be1410",
"o c #8d8169",
"O c #858971",
"+ c #dede00",
"@ c #a59985",
"# c #b6aa95",
"$ c #d6bea5",
"% c #eedebe",
"& c #ffead6",
/* pixels */
"    #%%%%%%%%%%%%%%%%%%%%%%%%%%%%%%%%%%&",
"   @@#$$$$$$$$$$$$$$OOOO$$$$$$$$$$$$$$%%",
"  @o@$$$$$$$$$$$$$$O++++O$$$$$$$$$$$$$$%",
" @oo@$$$$$$$$$$$$$O+XXXX+O$$$$$$$$$$$$$%",
"@ooo@$$$$$$$$$$$$O+XOOOOX+O$$$$$$$$$$$$%",
".ooo@$$$$$$$$$$$O+XOO++OOX+O$$$$$$$$$$$%",
".ooo@$$$$$$$$$$$O+XO+XX+OX+O$$$$$$$$$$$%",
".ooo@$$$$$$$$$$$O+XO+XX+OX+O$$$$$$$$$$$%",
".ooo@$$$$$$$$$$$O+XOO++OOX+O$$$$$$$$$$$%",
".ooo@$$$$OOOO$$$$O+XOOOOX+O$$$$OOOO$$$$%",
".ooo@$$$O++++O$$$$O+XXXX+O$$$$O++++O$$$%",
".ooo@$$O+XXXX+O$$$$O++++O$$$$O+XXXX+O$$%",
".ooo@$O+XOOOOX+O$$$$OOOO$$$$O+XOOOOX+O$%",
".ooo@O+XOO++OOX+O$$$$$$$$$$O+XOO++OOX+O%",
".ooo@O+XO+XX+OX+O$$$$$$$$$$O+XO+XX+OX+O%",
".ooo@O+XO+XX+OX+O$$$$$$$$$$O+XO+XX+OX+O%",
".ooo@O+XOO++OOX+O$$$$$$$$$$O+XOO++OOX+O%",
".ooo@$O+XOOOOX+O$$$$OOOO$$$$O+XOOOOX+O$%",
".ooo@$$O+XXXX+O$$$$O++++O$$$$O+XXXX+O$$%",
".ooo@$$$O++++O$$$$O+XXXX+O$$$$O++++O$$$%",
".ooo@$$$$OOOO$$$$O+XOOOOX+O$$$$OOOO$$$$%",
".ooo@$$$$$$$$$$$O+XOO++OOX+O$$$$$$$$$$$%",
".ooo@$$$$$$$$$$$O+XO+XX+OX+O$$$$$$$$$$$%",
".ooo@$$$$$$$$$$$O+XO+XX+OX+O$$$$$$$$$$$%",
".ooo@$$$$OOOO$$$O+XOO++OOX+O$$$OOOO$$$$%",
".ooo@$$$O++++O$$$O+XOOOOX+O$$$O++++O$$$%",
".ooo@$$O+XXXX+O$$$O+XXXX+O$$$O+XXXX+O$$%",
".ooo@$O+XOOOOX+O$$$O++++O$$$O+XOOOOX+O$%",
".ooo@O+XOO++OOX+O$$$OOOO$$$O+XOO++OOX+O%",
".ooo@O+XO+XX+OX+O$$$$$$$$$$O+XO+XX+OX+O%",
".ooo@O+XO+XX+OX+O$$$$$$$$$$O+XO+XX+OX+O%",
".ooo@O+XOO++OOX+O$$$$$$$$$$O+XOO++OOX+O%",
".ooo@$O+XOOOOX+O$$$$OOOO$$$$O+XOOOOX+O$%",
".ooo@$$O+XXXX+O$$$$O++++O$$$$O+XXXX+O$$%",
".ooo@$$$O++++O$$$$O+XXXX+O$$$$O++++O$$$%",
".ooo@$$$$OOOO$$$$O+XOOOOX+O$$$$OOOO$$$$%",
".ooo@$$$$$$$$$$$O+XOO++OOX+O$$$$$$$$$$$%",
".ooo@$$$$$$$$$$$O+XO+XX+OX+O$$$$$$$$$$$%",
".ooo@$$$$$$$$$$$O+XO+XX+OX+O$$$$$$$$$$$%",
".ooo@$$$$OOOO$$$O+XOO++OOX+O$$$OOOO$$$$%",
".ooo@$$$O++++O$$$O+XOOOOX+O$$$O++++O$$$%",
".ooo@$$O+XXXX+O$$$O+XXXX+O$$$O+XXXX+O$$%",
".ooo@$O+XOOOOX+O$$$O++++O$$$O+XOOOOX+O$%",
".ooo@O+XOO++OOX+O$$$OOOO$$$O+XOO++OOX+O%",
".ooo@O+XO+XX+OX+O$$$$$$$$$$O+XO+XX+OX+O%",
".ooo@O+XO+XX+OX+O$$$$$$$$$$O+XO+XX+OX+O%",
".ooo@O+XOO++OOX+O$$$$$$$$$$O+XOO++OOX+O%",
".ooo@$O+XOOOOX+O$$$$$$$$$$$$O+XOOOOX+O$%",
".ooo@$$O+XXXX+O$$$$$$$$$$$$$$O+XXXX+O$$%",
".ooo@$$$O++++O$$$$$$$$$$$$$$$$O++++O$$$%",
".ooo@@$$$OOOO$$$$$$$$$$$$$$$$$$OOOO$$$#%",
".oooo@@@@@@@@@@@@@@@@@@@@@@@@@@@@@@@@@@#",
".oo.oooooooooooooooooooooooooooooooooo@ ",
".o.oooooooooooooooooooooooooooooooooo@  ",
"..oooooooooooooooooooooooooooooooooo@   ",
"...................................@    "
};
