/* XPM */
static char *magick[] = {
/* columns rows colors chars-per-pixel */
"40 56 12 1",
"  c gray0",
". c #696150",
"X c #4865c6",
"o c #50d2d6",
"O c #be1410",
"+ c #8d8169",
"@ c #dede00",
"# c #a59985",
"$ c #b6aa95",
"% c #d6bea5",
"& c #eedebe",
"* c #ffead6",
/* pixels */
"    $&&&&&&&&&&&&&&&&&&&&&&&&&&&&&&&&&&*",
"   ##$%%%%%%%%%%%%%%%%%%%%%%%%%%%%%%%%&&",
"  #+#%%%%%%%%%%%%%%%%%%%%%%%%%%O@ooOOoo&",
" #++#%%%%%%%%%%%%%%%%%%%%%%%%%%%O@ooOOo&",
"#+++#%%%%%%%%%%%%%%%%%%%%%%%%%%%%O@ooOO&",
".+++#%%%%%%%%%%%%%%%%%%%%%%%%%%%%%O@ooO&",
".+++#%%%%%%%%%%%%%%%%%%%%%%%%%%%%%%O@oo&",
".+++#%%%%%%%%%%%%%%%%%%%%%%%%%%%%%%%O@X&",
".+++#%%%%%%%%%%%%%%%%%%%%%%%%%%%%%%%%XX&",
".+++#%%%%%%%%%%%%%%%%%%%%%%%%%%%%%%%XXX&",
".+++#%%%%%%%%%%%%%%%%%%%%%%%%%%%%%%%XX%&",
".+++#%%%%%%%%%%%%%%%%%%%%%%%%%%%%%%XX%%&",
".+++#%%%%%%%%%%%%%%%%%%%%%%%%%%%%%%XX%%&",
".+++#%%%%%%%%%%%%%%%%%%%%%%%%%%%%%XXX%%&",
".+++#%%%%%%%%%%%%%%%%%%%%%%%%%%%%%XX%%%&",
".+++#%%%%%%%%%%%%%%%%%%%%%%%%%%%%%XX%%%&",
".+++#%%%%%%%%%%%%%%%%%%%%%%%%%%%%XXX%%%&",
".+++#%%%%%%%%%%%%%%%%%%%%%%%%%%%%XX%%%%&",
".+++#%%%%%%%%%%%%%%%%%%%%%%%%%%%%XX%%%%&",
".+++#XX%%%%XXX%%%%%%%%%%%%%%%%%%%XX%%%%&",
".+++#XX%%%%XX%%%%%%%%%%%%%%%%%%%%XX%%%%&",
".+++#XX%%%%XX%%%%%%%%%%%OOOOOOOOXXX%%%%&",
".+++#XX%%%%XX%%%%%%OOOOO@@@@@@@@XX%%%%%&",
".+++#XX%%%%XX%%%OOO@@@@@ooooooooXX%%%%%&",
".+++#XX%%%%XX%OO@@@oooooooooooooXX%%%%%&",
".+++#XX%%%%XXOOOOOOOOOOOOOOOOOOOOOOOOOO&",
".+++#XX%%%%XXOOOOOOOOOOOOOOOOOOOOOOOOOO&",
".+++#XX%XX%XX%OO@@@oooooooooooooXX%%%%%&",
".+++#XX%XX%XX%%%OOO@@@@@ooooooooXX%%%%%&",
".+++#XX%XX%XX%%%%%%OOOOO@@@@@@@@XX%%%%%&",
".+++#XX%XX%XX%%%%%%%%%%%OOOOOOOOXXX%%%%&",
".+++#XXX%%XXX%%%%%%%%%%%%%%%%%%%%XX%%%%&",
".+++#XXX%%XXXX%%%%%%%%%%%%%%%%%%%XX%%%%&",
".+++#%%%%%%%%%%%%%%%%%%%%%%%%%%%%XX%%%%&",
".+++#%%%%%%%%%%%%%%%%%%%%%%%%%%%%XX%%%%&",
".+++#%%%%%%%%%%%%%%%%%%%%%%%%%%%%XXX%%%&",
".+++#%%%%%%%%%%%%%%%%%%%%%%%%%%%%%XX%%%&",
".+++#%%%%%%%%%%%%%%%%%%%%%%%%%%%%%XX%%%&",
".+++#%%%%%%%%%%%%%%%%%%%%%%%%%%%%%XXX%%&",
".+++#%%%%%%%%%%%%%%%%%%%%%%%%%%%%%%XX%%&",
".+++#%%%%%%%%%%%%%%%%%%%%%%%%%%%%%%XXX%&",
".+++#%%%%%%%%%%%%%%%%%%%%%%%%%%%%%%%XX%&",
".+++#%%%%%%%%%%%%%%%%%%%%%%%%%%%%%%%XXX&",
".+++#%%%%%%%%%%%%%%%%%%%%%%%%%%%%%%%%XX&",
".+++#%%%%%%%%%%%%%%%%%%%%%%%%%%%%%%%O@X&",
".+++#%%%%%%%%%%%%%%%%%%%%%%%%%%%%%%O@oo&",
".+++#%%%%%%%%%%%%%%%%%%%%%%%%%%%%%O@ooO&",
".+++#%%%%%%%%%%%%%%%%%%%%%%%%%%%%O@ooOO&",
".+++#%%%%%%%%%%%%%%%%%%%%%%%%%%%O@ooOOo&",
".+++#%%%%%%%%%%%%%%%%%%%%%%%%%%O@ooOOoo&",
".+++##%%%%%%%%%%%%%%%%%%%%%%%%%%%%%%%%$&",
".++++##################################$",
".++.++++++++++++++++++++++++++++++++++# ",
".+.++++++++++++++++++++++++++++++++++#  ",
"..++++++++++++++++++++++++++++++++++#   ",
"...................................#    "
};
