/* XPM */
static char *magick[] = {
/* columns rows colors chars-per-pixel */
"40 56 18 1",
"  c gray0",
". c #007d10",
"X c #790028",
"o c #690061",
"O c #696150",
"+ c #18c648",
"@ c #be1410",
"# c #8d4000",
"$ c #955d00",
"% c #8d8169",
"& c #858971",
"* c #dede00",
"= c #a59985",
"- c #b6aa95",
"; c #c6b295",
": c #d6bea5",
"> c #eedebe",
", c #ffead6",
/* pixels */
"    ->>>>>>>>>>>>>>>>>>>>>>>>>>>>>>>>>>,",
"   ==-::::::::::::::::::::::::::::::::>>",
"  =%=::::::::::::::::::::::::::::::#:::>",
" =%%=:::::::::::::::::::::::::::::##:::>",
"=%%%=::::::::::::::::::::::::::::#:#:::>",
"O%%%=::::::::::::::::::::::::::::::#:::>",
"O%%%=::::::::::::::::::::::::::::::#:::>",
"O%%%=::::::::::::::::::::::::::::::#:::>",
"O%%%=::::::::::::::::::::::::::::::#:::>",
"O%%%=:::::::::::::::::::$##:::::::###::>",
"O%%%=::::::::::::::::::$#;;#:::::#####:>",
"O%%%=:::::::::::::::::$#;$#;#::::::::::>",
"O%%%=:::::::::::::::::XX$;*;#**::::::::>",
"O%%%=::::::::::::::::X$$$;$;**:::::::::>",
"O%%%=::::::::::::::::$X##$;$:::::::::::>",
"O%%%=::::::::::::::::$X$;#$#:::::::::::>",
"O%%%=:::::::::::::::$X$#;$$::::::::::::>",
"O%%%=::::::::::::::X#$####$@:::::::::::>",
"O%%%=:::::::::::::$$;o#X#$$@:::::::::::>",
"O%%%=::::::::::::XXo##;o;$@$:::::::::::>",
"O%%%=:::::::::::$$o###X#;$$$::::::++::+>",
"O%%%=::::::::::$o###$##;$@@::::::+:::+:>",
"O%%%=::::::oo$o####XX$o;;@::::::+:...++>",
"O%%%=:::::::######$#oo;#@@::+::....::::>",
"O%%%=::::::::###X#Xo##;@@::::...:++::::>",
"O%%%=:::::::@@o#Xo###;@@::::..+:::+::::>",
"O%%%=::::::@@;@$;##;$@@::+:..:::::::::+>",
"O%%%=::::::###;#;;$;@@:::...+:+:++::.+:>",
"O%%%=:::::##$#;:@@@@::::..:::+:::....::>",
"O%%%=::::###;$:::&:::::..+:+:::...:::::>",
"O%%%=:::#####::::&::::..::+::...::+::::>",
"O%%%=::##@##:::::&&::..::::...++:::::::>",
"O%%%=:##@##$::::::&:..::+...:+:::::::::>",
"O%%%=:@@@##:::::::&&.:::..+::::::::::::>",
"O%%%=#@@##:::::+:..::+...:+::::::::::::>",
"O%%%=:@##::::+::..:+:..::::::::::::::::>",
"O%%%=@@#::::+::..:::..:++::::::::::::::>",
"O%%%=:@:::::+:..::+..::::+:::::::::::::>",
"O%%%=::::::::..:+...+::::::::::::::::::>",
"O%%%=:::::::..::..:::::::::::::::::::::>",
"O%%%=::::::..::..::::::::::::::::::::::>",
"O%%%=:::::..:...::++:::::::::::::::::::>",
"O%%%=::::..:..::+::::::::::::::::::::::>",
"O%%%=:::..:..::::::::::::::::::::::::::>",
"O%%%=::..:..++:::::::::::::::::::::::::>",
"O%%%=::....::::::::::::::::::::::::::::>",
"O%%%=:....:::::::::::::::::::::::::::::>",
"O%%%=:...::::::::::::::::::::::::::::::>",
"O%%%=:..:::::::::::::::::::::::::::::::>",
"O%%%=:.::::::::::::::::::::::::::::::::>",
"O%%%==::::::::::::::::::::::::::::::::->",
"O%%%%==================================-",
"O%%O%%%%%%%%%%%%%%%%%%%%%%%%%%%%%%%%%%= ",
"O%O%%%%%%%%%%%%%%%%%%%%%%%%%%%%%%%%%%=  ",
"OO%%%%%%%%%%%%%%%%%%%%%%%%%%%%%%%%%%=   ",
"OOOOOOOOOOOOOOOOOOOOOOOOOOOOOOOOOOO=    "
};
