/* XPM */
static char *magick[] = {
/* columns rows colors chars-per-pixel */
"40 56 13 1",
"  c gray0",
". c #007d10",
"X c #790028",
"o c #696150",
"O c #18c648",
"+ c #8d4000",
"@ c #8d8169",
"# c #858971",
"$ c #a59985",
"% c #b6aa95",
"& c #d6bea5",
"* c #eedebe",
"= c #ffead6",
/* pixels */
"    %**********************************=",
"   $$%&&&&&&&&&&&&&&&&&&&&&&&&&&&&&&&&**",
"  $@$&&&&&&&&&&&&&&&&&&&&&&&&&&&&&&&&&&*",
" $@@$&&&&&&&&&&&&&&&&&&&&&&&&&&&&&&&&&&*",
"$@@@$&&&&&&&&&&&&&&&&&&&&&&&&&&&&&&&&&&*",
"o@@@$&&&&.#X&&X#.&&&&&&&&&&.#X&&X#.&&&&*",
"o@@@$&&&&&..XX..&&&&&&&&&&&&..XX..&&&&&*",
"o@@@$&&&&.XX..XX.&&&&&&&&&&.XX..XX.&&&&*",
"o@@@$&&&&&.OXX+.&&&&&&&&&&&&.OXX+.&&&&&*",
"o@@@$&&&&&.O#.+.&&&&&&&&&&&&.O#.+.&&&&&*",
"o@@@$&&&&&.O#.+.&&&&&&&&&&&&.O#.+.&&&&&*",
"o@@@$&&&&&.O#.+.&&&&&&&&&&&&.O#.+.&&&&&*",
"o@@@$&&&&&.O#.+.&&&&&&&&&&&&.O#.+.&&&&&*",
"o@@@$&&&&&.O#.+.&&&&&&&&&&&&.O#.+.&&&&&*",
"o@@@$&&&&.X.#..X.&&&&&&&&&&.X.#..X.&&&&*",
"o@@@$&&&&&.X..X.&&&&&&&&&&&&.X..X.&&&&&*",
"o@@@$&&&&&.OXX+.&&&&&&&&&&&&.OXX+.&&&&&*",
"o@@@$&&&&&.O#.+.&&&&&&&&&&&&.O#.+.&&&&&*",
"o@@@$&&&&&.O#.+.&&&&&&&&&&&&.O#.+.&&&&&*",
"o@@@$&&&&&.O#.+.&&&&&&&&&&&&.O#.+.&&&&&*",
"o@@@$&&&&&.O#.+.&&&&&&&&&&&&.O#.+.&&&&&*",
"o@@@$&&&&.X.#..X.&&&&&&&&&&.X.#..X.&&&&*",
"o@@@$&&&&&.X..X.&&&&&&&&&&&&.X..X.&&&&&*",
"o@@@$&&&&&&&XX&&&&&&&&&&&&&&&&XX&&&&&&&*",
"o@@@$&&&&&&&&&&&&&&&&&&&&&&&&&&&&&&&&&&*",
"o@@@$&&&&&&&&&&&&&&&&&&&&&&&&&&&&&&&&&&*",
"o@@@$&&&&&&&&&&&&&&&&&&&&&&&&&&&&&&&&&&*",
"o@@@$&&&&&&&&&&&&&&&&&&&&&&&&&&&&&&&&&&*",
"o@@@$&&&&.#X&&X#.&&&&&&&&&&.#X&&X#.&&&&*",
"o@@@$&&&&&..XX..&&&&&&&&&&&&..XX..&&&&&*",
"o@@@$&&&&.XX..XX.&&&&&&&&&&.XX..XX.&&&&*",
"o@@@$&&&&&.OXX+.&&&&&&&&&&&&.OXX+.&&&&&*",
"o@@@$&&&&&.O#.+.&&&&&&&&&&&&.O#.+.&&&&&*",
"o@@@$&&&&&.O#.+.&&&&&&&&&&&&.O#.+.&&&&&*",
"o@@@$&&&&&.O#.+.&&&&&&&&&&&&.O#.+.&&&&&*",
"o@@@$&&&&&.O#.+.&&&&&&&&&&&&.O#.+.&&&&&*",
"o@@@$&&&&&.O#.+.&&&&&&&&&&&&.O#.+.&&&&&*",
"o@@@$&&&&.X.#..X.&&&&&&&&&&.X.#..X.&&&&*",
"o@@@$&&&&&.X..X.&&&&&&&&&&&&.X..X.&&&&&*",
"o@@@$&&&&&.OXX+.&&&&&&&&&&&&.OXX+.&&&&&*",
"o@@@$&&&&&.O#.+.&&&&&&&&&&&&.O#.+.&&&&&*",
"o@@@$&&&&&.O#.+.&&&&&&&&&&&&.O#.+.&&&&&*",
"o@@@$&&&&&.O#.+.&&&&&&&&&&&&.O#.+.&&&&&*",
"o@@@$&&&&&.O#.+.&&&&&&&&&&&&.O#.+.&&&&&*",
"o@@@$&&&&.X.#..X.&&&&&&&&&&.X.#..X.&&&&*",
"o@@@$&&&&&.X..X.&&&&&&&&&&&&.X..X.&&&&&*",
"o@@@$&&&&&&&XX&&&&&&&&&&&&&&&&XX&&&&&&&*",
"o@@@$&&&&&&&&&&&&&&&&&&&&&&&&&&&&&&&&&&*",
"o@@@$&&&&&&&&&&&&&&&&&&&&&&&&&&&&&&&&&&*",
"o@@@$&&&&&&&&&&&&&&&&&&&&&&&&&&&&&&&&&&*",
"o@@@$$&&&&&&&&&&&&&&&&&&&&&&&&&&&&&&&&%*",
"o@@@@$$$$$$$$$$$$$$$$$$$$$$$$$$$$$$$$$$%",
"o@@o@@@@@@@@@@@@@@@@@@@@@@@@@@@@@@@@@@$ ",
"o@o@@@@@@@@@@@@@@@@@@@@@@@@@@@@@@@@@@$  ",
"oo@@@@@@@@@@@@@@@@@@@@@@@@@@@@@@@@@@$   ",
"ooooooooooooooooooooooooooooooooooo$    "
};
