/* XPM */
static char *magick[] = {
/* columns rows colors chars-per-pixel */
"40 56 13 1",
"  c gray0",
". c #007d10",
"X c #790028",
"o c #696150",
"O c #18c648",
"+ c #8d4000",
"@ c #8d8169",
"# c #858971",
"$ c #a59985",
"% c #b6aa95",
"& c #d6bea5",
"* c #eedebe",
"= c #ffead6",
/* pixels */
"    %**********************************=",
"   $$%&&&&&&&&&&&&.#X&&X#.&&&&&&&&&&&&**",
"  $@$&&&&&&&&&&&&&&..XX..&&&&&&&&&&&&&&*",
" $@@$&&&&&&&&&&&&&.XX..XX.&&&&&&&&&&&&&*",
"$@@@$&&&&&&&&&&&&&&.OXX+.&&&&&&&&&&&&&&*",
"o@@@$&&&&&&&&&&&&&&.O#.+.&&&&&&&&&&&&&&*",
"o@@@$&&&.#X&&.#.&&&.O#.+.&&&.#X&&X#.&&&*",
"o@@@$&&&&..XX..&&&&.O#.+.&&&&..XX..&&&&*",
"o@@@$&&&.XX..XX.&&.X.#..X.&&.XX..XX.&&&*",
"o@@@$&&&&.OXX+.&&&&.X..X.&&&&.OXX+.&&&&*",
"o@@@$&&&&.O#.+.&&&&.OXX+.&&&&.O#.+.&&&&*",
"o@@@$&&&&.O#.+.&&&&.O#.+.&&&&.O#.+.&&&&*",
"o@@@$&&&&.O#.+.&&&&.O#.+.&&&&.O#.+.&&&&*",
"o@@@$&&&&.O#.+.&&&&.O#.+.&&&&.O#.+.&&&&*",
"o@@@$&&&&.O#.+.&&&.X.#..X.&&&.O#.+.&&&&*",
"o@@@$&&&.X.#..X.&&&.X..X.&&&.X.#..X.&&&*",
"o@@@$&&&&.X..X.&&&&&&XX&&&&&&.X..X.&&&&*",
"o@@@$&&&&.OXX+.&&&&&&&&&&&&&&.OXX+.&&&&*",
"o@@@$&&&&.O#.+.&&&.#X&&X#.&&&.O#.+.&&&&*",
"o@@@$&&&&.O#.+.&&&&..XX..&&&&.O#.+.&&&&*",
"o@@@$&&&&.O#.+.&&&.XX..XX.&&&.O#.+.&&&&*",
"o@@@$&&&&.O#.+.&&&&.OXX+.&&&&.O#.+.&&&&*",
"o@@@$&&&.X.#..X.&&&.O#.+.&&&.X.#..X.&&&*",
"o@@@$&&&&.X..X.&&&&.O#.+.&&&&.X..X.&&&&*",
"o@@@$&&&&&&XX&&&&&&.O#.+.&&&&&&XX&&&&&&*",
"o@@@$&&&&&&&&&&&&&.X.#..X.&&&&&&&&&&&&&*",
"o@@@$&&&&&&&&&&&&&&.X..X.&&&&&&&&&&&&&&*",
"o@@@$&&&&&&&&&&&&&&.OXX+.&&&&&&&&&&&&&&*",
"o@@@$&&&.#X&&X#.&&&.O#.+.&&&.#X&&X#.&&&*",
"o@@@$&&&&..XX..&&&&.O#.+.&&&&..XX..&&&&*",
"o@@@$&&&.XX..XX.&&&.O#.+.&&&.XX..XX.&&&*",
"o@@@$&&&&.OXX+.&&&.X.#..X.&&&.OXX+.&&&&*",
"o@@@$&&&&.O#.+.&&&&.X..X.&&&&.O#.+.&&&&*",
"o@@@$&&&&.O#.+.&&&&&&XX&&&&&&.O#.+.&&&&*",
"o@@@$&&&&.O#.+.&&&&&&&&&&&&&&.O#.+.&&&&*",
"o@@@$&&&&.O#.+.&&&.#X&&X#.&&&.O#.+.&&&&*",
"o@@@$&&&&.O#.+.&&&&..XX..&&&&.O#.+.&&&&*",
"o@@@$&&&.X.#..X.&&.XX..XX.&&.X.#..X.&&&*",
"o@@@$&&&&.X..X.&&&&.OXX+.&&&&.X..X.&&&&*",
"o@@@$&&&&.OXX+.&&&&.O#.+.&&&&.OXX+.&&&&*",
"o@@@$&&&&.O#.+.&&&&.O#.+.&&&&.O#.+.&&&&*",
"o@@@$&&&&.O#.+.&&&&.O#.+.&&&&.O#.+.&&&&*",
"o@@@$&&&&.O#.+.&&&.X.#..X.&&&.O#.+.&&&&*",
"o@@@$&&&&.O#.+.&&&&.X..X.&&&&.O#.+.&&&&*",
"o@@@$&&&.X.#..X.&&&.OXX+.&&&.X.#..X.&&&*",
"o@@@$&&&&.X..X.&&&&.O#.+.&&&&.X..X.&&&&*",
"o@@@$&&&&&&XX&&&&&&.O#.+.&&&&&&XX&&&&&&*",
"o@@@$&&&&&&&&&&&&&&.O#.+.&&&&&&&&&&&&&&*",
"o@@@$&&&&&&&&&&&&&.X.#..X.&&&&&&&&&&&&&*",
"o@@@$&&&&&&&&&&&&&&.X..X.&&&&&&&&&&&&&&*",
"o@@@$$&&&&&&&&&&&&&&&XX&&&&&&&&&&&&&&&%*",
"o@@@@$$$$$$$$$$$$$$$$$$$$$$$$$$$$$$$$$$%",
"o@@o@@@@@@@@@@@@@@@@@@@@@@@@@@@@@@@@@@$ ",
"o@o@@@@@@@@@@@@@@@@@@@@@@@@@@@@@@@@@@$  ",
"oo@@@@@@@@@@@@@@@@@@@@@@@@@@@@@@@@@@$   ",
"ooooooooooooooooooooooooooooooooooo$    "
};
