/* XPM */
static char *magick[] = {
/* columns rows colors chars-per-pixel */
"40 56 14 1",
"  c gray0",
". c #007d10",
"X c #790028",
"o c #696150",
"O c #18c648",
"+ c #8d4000",
"@ c #955d00",
"# c #8d8169",
"$ c #858971",
"% c #a59985",
"& c #b6aa95",
"* c #d6bea5",
"= c #eedebe",
"- c #ffead6",
/* pixels */
"    &==================================-",
"   %%&********************************==",
"  %#%*.*.****.*****.****.*****.****.*.*=",
" %##%*+.X....X.....X****X.....X....X.+*=",
"%###%*..XOOO.XOOOOO.X**X.OOOOOX.OOOX..*=",
"o###%**@.X$$$.X$$$$$X**X$$$$$X.$$$X.@**=",
"o###%**@.X....X.....X**X.....X....X.@**=",
"o###%*..X@@@.X@@@@@.X**X.@@@@@X.@@@X..*=",
"o###%*+.X....X.....X****X.....X....X.+*=",
"o###%*.*.****.*****.****.*****.****.*.*=",
"o###%**********************************=",
"o###%***********XX********XX***********=",
"o###%**********..X********X..**********=",
"o###%*********..OXX******XXO..*********=",
"o###%*******X..O$$XXX**XXX$$O..X*******=",
"o###%*******X.O$$@@.X**X.@@$$O.X*******=",
"o###%******.XO$$@@..****..@@$$OX.******=",
"o###%*****..OX$@@..******..@@$XO..*****=",
"o###%****..O$$X@..********..@X$$O..****=",
"o###%***..O$$@@XXX********XXX@@$$O..***=",
"o###%**X.O$$@@..************..@@$$O.X**=",
"o###%**XX$$@@..**************..@@$$XX**=",
"o###%***X$@@..****************..@@$X***=",
"o###%***XXX..******************..XXX***=",
"o###%*****XX********************XX*****=",
"o###%**********************************=",
"o###%**********************************=",
"o###%*****XX********************XX*****=",
"o###%*****X..******************..X*****=",
"o###%****X$O..****************..O$X****=",
"o###%**XX@$$O..X************X..O$$@XX**=",
"o###%**X.@@$$O.X************X.O$$@@.X**=",
"o###%***..@@$$OX.**********.XO$$@@..***=",
"o###%****..@@$XO..********..OX$@@..****=",
"o###%*****..@X$$O..******..O$$X@..*****=",
"o###%*****XXX@@$$O..****..O$$@@XXX*****=",
"o###%*******..@@$$O.X**X.O$$@@..*******=",
"o###%********..@@$$XX**XX$$@@..********=",
"o###%*********..@@$X****X$@@..*********=",
"o###%**********..XXX****XXX..**********=",
"o###%***********XX********XX***********=",
"o###%**********************************=",
"o###%*.*.****.*****.****.*****.****.*.*=",
"o###%*+.X....X.....X****X.....X....X.+*=",
"o###%*..XOOO.XOOOOO.X**X.OOOOOX.OOOX..*=",
"o###%**@.X$$$.X$$$$$X**X$$$$$X.$$$X.@**=",
"o###%**@.X....X.....X**X.....X....X.@**=",
"o###%*..X@@@.X@@@@@.X**X.@@@@@X.@@@X..*=",
"o###%*+.X....X.....X****X.....X....X.+*=",
"o###%*.*.****.*****.****.*****.****.*.*=",
"o###%%********************************&=",
"o####%%%%%%%%%%%%%%%%%%%%%%%%%%%%%%%%%%&",
"o##o##################################% ",
"o#o##################################%  ",
"oo##################################%   ",
"ooooooooooooooooooooooooooooooooooo%    "
};
