/* XPM */
static char *magick[] = {
/* columns rows colors chars-per-pixel */
"40 56 12 1",
"  c gray0",
". c #696150",
"X c #4865c6",
"o c #50d2d6",
"O c #be1410",
"+ c #8d8169",
"@ c #dede00",
"# c #a59985",
"$ c #b6aa95",
"% c #d6bea5",
"& c #eedebe",
"* c #ffead6",
/* pixels */
"    $&&&&&&&&&&&&&&&&&&&&&&&&&&&&&&&&&&*",
"   ##$%%%%%%%%%%%%%%%%%%%%%%%%%%%%%%%%&&",
"  #+#%ooOOoo@O%%%%%%%%%%%%%%%%%%%%%%%%%&",
" #++#ooOOoo@O%%%%%%%%%%%%%%%%%%%%%%%%%%&",
"#+++#oOOoo@O%%%%%%%%%%%%%%%%%%%%%%%%%%%&",
".+++#OOoo@O%%%%%%%%%%%%%%%%%%%%%%%%%%%%&",
".+++#Xoo@O%%%%%%%%%%%%%%%%%%%%%%%%%%%%%&",
".+++#XX@O%%%%%%%%%%%%%%%%%%%%%%%%%%%%%%&",
".+++#XXX%%%%%%%%%%%%%%%%%%%%%%%%%%%%%%%&",
".+++#%XXX%%%%%%%%%%%%%%%%%%%%%%%%%%%%%%&",
".+++#%%XX%%%%%%%%%%%%%%%%%%%%%%%%%%%%%%&",
".+++#%%XXX%%%%%%%%%%%%%%%%%%%%%%%%%%%%%&",
".+++#%%%XX%%%%%%%%%%%%%%%%%%%%%%%%%%%%%&",
".+++#%%%XXX%%%%%%%%%%%%%%%%%%%%%%%%%%%%&",
".+++#%%%%XX%%%%%%%%%%%%%%%%%%%%%%%%%%%%&",
".+++#%%%%XX%%%%%%%%%%%%%%%%%%%%%%%%%%%%&",
".+++#%%%%XXX%%%%%%%%%%%%%%%%%%%%%%%%%%%&",
".+++#%%%%%XX%%%%%%%%%%%%%%%%%%%%%%%%%%%&",
".+++#%%%%%XX%%%%%%%%%%%%%%%%%%%%%%%%%%%&",
".+++#%%%%%XX%%%%%%%%%%%%%%%%%%%%%XXXXXX&",
".+++#%%%%%XX%%%%%%%%%%%%%%%%%%%%%XXXXXX&",
".+++#%%%%%XXXOOOOOOOO%%%%%%%%%%%%XX%%%X&",
".+++#%%%%%%XX@@@@@@@@OOOOO%%%%%%%XX%%%%&",
".+++#%%%%%%XXoooooooo@@@@@OOO%%%%XX%%%%&",
".+++#%%%%%%XXooooooooooooo@@@OO%%XXXX%%&",
".+++#OOOOOOXXOOOOOOOOOOOOOOOOOOO%XXXX%%&",
".+++#OOOOOOXXOOOOOOOOOOOOOOOOOOO%XX%%%%&",
".+++#%%%%%%XXooooooooooooo@@@OO%%XX%%%%&",
".+++#%%%%%%XXoooooooo@@@@@OOO%%%%XX%%%%&",
".+++#%%%%%%XX@@@@@@@@OOOOO%%%%%%%XX%%%%&",
".+++#%%%%%XXXOOOOOOOO%%%%%%%%%%%%XX%%%X&",
".+++#%%%%%XX%%%%%%%%%%%%%%%%%%%%%XXXXXX&",
".+++#%%%%%XX%%%%%%%%%%%%%%%%%%%%%XXXXXX&",
".+++#%%%%%XX%%%%%%%%%%%%%%%%%%%%%%%%%%%&",
".+++#%%%%%XX%%%%%%%%%%%%%%%%%%%%%%%%%%%&",
".+++#%%%%XXX%%%%%%%%%%%%%%%%%%%%%%%%%%%&",
".+++#%%%%XX%%%%%%%%%%%%%%%%%%%%%%%%%%%%&",
".+++#%%%%XX%%%%%%%%%%%%%%%%%%%%%%%%%%%%&",
".+++#%%%XXX%%%%%%%%%%%%%%%%%%%%%%%%%%%%&",
".+++#%%%XX%%%%%%%%%%%%%%%%%%%%%%%%%%%%%&",
".+++#%%XXX%%%%%%%%%%%%%%%%%%%%%%%%%%%%%&",
".+++#%%XX%%%%%%%%%%%%%%%%%%%%%%%%%%%%%%&",
".+++#%XXX%%%%%%%%%%%%%%%%%%%%%%%%%%%%%%&",
".+++#XXX%%%%%%%%%%%%%%%%%%%%%%%%%%%%%%%&",
".+++#XX@O%%%%%%%%%%%%%%%%%%%%%%%%%%%%%%&",
".+++#Xoo@O%%%%%%%%%%%%%%%%%%%%%%%%%%%%%&",
".+++#OOoo@O%%%%%%%%%%%%%%%%%%%%%%%%%%%%&",
".+++#oOOoo@O%%%%%%%%%%%%%%%%%%%%%%%%%%%&",
".+++#ooOOoo@O%%%%%%%%%%%%%%%%%%%%%%%%%%&",
".+++#%ooOOoo@O%%%%%%%%%%%%%%%%%%%%%%%%%&",
".+++##%%%%%%%%%%%%%%%%%%%%%%%%%%%%%%%%$&",
".++++##################################$",
".++.++++++++++++++++++++++++++++++++++# ",
".+.++++++++++++++++++++++++++++++++++#  ",
"..++++++++++++++++++++++++++++++++++#   ",
"...................................#    "
};
