/* XPM */
static char *magick[] = {
/* columns rows colors chars-per-pixel */
"40 56 12 1",
"  c gray0",
". c #696150",
"X c #4865c6",
"o c #50d2d6",
"O c #be1410",
"+ c #8d8169",
"@ c #dede00",
"# c #a59985",
"$ c #b6aa95",
"% c #d6bea5",
"& c #eedebe",
"* c #ffead6",
/* pixels */
"    $&&&&&&&&&&&&&&&&&&&&&&&&&&&&&&&&&&*",
"   ##$%%%%%%%%%%XXX%%%%%XXXX%%%%%%%%%%&&",
"  #+#%%%%%%%%%%%%XXX%%%%%XX%%%%%%%%%%%%&",
" #++#%%%%%%%%%%%%XXX%%%%%XX%%%%%%%%%%%%&",
"#+++#%%%%%%%%%%%%XXXX%%%%XX%%%%%%%%%%%%&",
".+++#%%%%%%%%%%%%XXXXX%%%XX%%%%%%%%%%%%&",
".+++#%%%%%%%%%%%%XX%XXX%%XX%%%%%%%%%%%%&",
".+++#%%%%%%%%%%%%XX%%XXX%XX%%%%%%%%%%%%&",
".+++#%%%%%%%%%%%%XX%%%XXXXX%%%%%%%%%%%%&",
".+++#%%%%%%%%%%%%XX%%%%XXXX%%%%%%%%%%%%&",
".+++#%%%%%%%%%%%%XX%%%%%XXX%%%%%%%%%%%%&",
".+++#%%%%%%%%%%%%XX%%%%%XXX%%%%%%%%%%%%&",
".+++#%%%%%%%%%%%XXXX%%%%%XXX%%%%%%%%%%%&",
".+++#%%%%%%%%%%%%%%%%OO%%%%%%%%%%%%%%%%&",
".+++#%%%%%%%%%%%%%%%%OO%%%%%%%%%%%%%%%%&",
".+++#%%%%%%%%%%%%%%%OOOO%%%%%%%%%%%%%%%&",
".+++#%%%%%%%%%%%%%%%OOOO%%%%%%%%%%%%%%%&",
".+++#%%%%%%%%%%%%%%O@OO@O%%%%%%%%%%%%%%&",
".+++#%%%%%%%%%%%%%%O@OO@O%%%%%%%%%%%%%%&",
".+++#%%%%%%%%%%%%%%O@OO@O%%%%%%%%%%%%%%&",
".+++#%%%%%%%%%%%%%%O@OO@O%%%%%%%%%%%%%%&",
".+++#%%%%%%%%%%%%%%O@OO@O%%%%%%%%%%%%%%&",
".+++#%%%%%%%%%%%%%O@oOOo@O%%%%%%%%%%%%%&",
".+++#%%%%%%%%%%%%%O@oOOo@O%%%%%%%%%%%%%&",
".+++#%%%%%%%%%%%%%O@oOOo@O%%%%%%%%%%%%%&",
".+++#%%%%%%%%%%%%%O@oOOo@O%%%%%%%%%%%%%&",
".+++#%%%%%%%%%%%%O@ooOOoo@O%%%%%%%%%%%%&",
".+++#%%%%%%%%%%%%O@ooOOoo@O%%%%%%%%%%%%&",
".+++#%%%%%%%%%%%%O@ooOOoo@O%%%%%%%%%%%%&",
".+++#%%%%%%%%%%%%O@ooOOoo@O%%%%%%%%%%%%&",
".+++#%%%%%%%%%%%%O@ooOOoo@O%%%%%%%%%%%%&",
".+++#%%%%%%%%%%%O@oooOOooo@O%%%%%%%%%%%&",
".+++#%%%%%%%%%%%O@oooOOooo@O%%%%%%%%%%%&",
".+++#%%%%%%%%%%%O@oooOOooo@O%%%%%%%%%%%&",
".+++#%%%%%%%%%%%O@oooOOooo@O%%%%%%%%%%%&",
".+++#%%%%%%%%%%%O@oooOOooo@O%%%%%%%%%%%&",
".+++#%%%%%%%%%%%O@oooOOooo@O%%%%%%%%%%%&",
".+++#%%%%%%%%%%O@ooooOOoooo@O%%%%%%%%%%&",
".+++#%%%%%%%%%%O@ooooOOoooo@O%%%%%%%%%%&",
".+++#%%%%%%%%%%O@ooooOOoooo@O%%%%%%%%%%&",
".+++#%%%%%%%%%%O@oXXXOOXXXo@O%%%%%%%%%%&",
".+++#O%%%%%%%%%XXXXXXOOXXXXXX%%%%%%%%%O&",
".+++#@O%%%%%XXXXXXX%%OO%%XXXXXXX%%%%%O@&",
".+++#o@O%%XXXXXX%%%%%OO%%%%%XXXXXX%%O@o&",
".+++#oo@XXXXX%%%%%%%%OO%%%%%%%%XXXXX@oo&",
".+++#OoXXXX%%%%%%%%%%OO%%%%%%%%%%XXXXoO&",
".+++#OXXX%%%%%%%%%%%%OO%%%%%%%%%%%%XXXO&",
".+++#XXX%%%%%%%%%%%%%OO%%%%%%%%%%%%%XXX&",
".+++#XX%%%%%%%%%%%%%%OO%%%%%%%%%%%%%%XX&",
".+++#X%%%%%%%%%%%%%%%OO%%%%%%%%%%%%%%%X&",
".+++##%%%%%%%%%%%%%%%OO%%%%%%%%%%%%%%%$&",
".++++##################################$",
".++.++++++++++++++++++++++++++++++++++# ",
".+.++++++++++++++++++++++++++++++++++#  ",
"..++++++++++++++++++++++++++++++++++#   ",
"...................................#    "
};
