/* XPM */
static char * image_name[] = {
"30 38 8 1",
" 	c #F7F7FBFBF7F7",
".	c #0000BBBBB7B7",
"X	c #B7B70000B7B7",
"o	c #0000BBBB0000",
"O	c #B7B700000000",
"+	c #000000000000",
"@	c #B7B7BBBB0000",
"#	c #00000000B7B7",
"                              ",
"                              ",
"                              ",
"                              ",
"                              ",
"              ...             ",
"             .XXX ...         ",
"    o       .XOOO.XXX.        ",
"     o      .XOOOXOOOX.       ",
"      o      XO++++OOX.       ",
"      oo    ..X+@@+OOX.       ",
"       oo  .XOO+@@+X.         ",
"       oo  .XOO++++OX.        ",
"       oo  .XOOOXOOOX.        ",
"        oo  .XX..OOOX.        ",
"        oo   .. .XXX.         ",
"        oo   o   ...o         ",
"         oo  o    oo          ",
"         oo oo   oo           ",
"         oo o   oo            ",
"    o    oo o   o             ",
"     o    ooo  oo             ",
"      o   oo  oo              ",
"       o  oo  oo              ",
"        o oo  oo              ",
"        o+oo++oo+             ",
"  ####++o+oo+++++++++####.... ",
"   ####++++++++++++#####....  ",
"    ####+++++++++#####.....   ",
"     .##############......    ",
"      ..#########.......      ",
"        ...............       ",
"         .............        ",
"            ......            ",
"                              ",
"                              ",
"                              ",
"                              "};
