/* XPM */
static char * image_name[] = {
"30 38 3 1",
" 	c #F7F7FBFBF7F7",
".	c #B7B700000000",
"X	c #0000BBBB0000",
"                              ",
"         .                    ",
"         .                    ",
"        ...                   ",
"        ...                   ",
"       .....                  ",
"       .....                  ",
"      .......                 ",
"      .......       X         ",
"     .........      X         ",
"      .......      XXX        ",
"       .....       XXX        ",
"    .   ...   .   XXXXX       ",
"   ...   .   ...  XXXXX       ",
"  .....     .....XXXXXXX      ",
" .......   .......XXXXXX      ",
"  .....     .....XXXXXXXX     ",
"   ...   .   ... XXXXXXX      ",
"    .   ...   .   XXXXX       ",
"       .....   X   XXX   X    ",
"      ....... XXX   X   XXX   ",
"     .........XXXX     XXXXX  ",
"      .......XXXXXX   XXXXXXX ",
"      .......XXXXX     XXXXX  ",
"       .....  XXX   X   XXX   ",
"       .....   X   XXX   X    ",
"        ...       XXXXX       ",
"        ...      XXXXXXX      ",
"         .      XXXXXXXXX     ",
"         .       XXXXXXX      ",
"                 XXXXXXX      ",
"                  XXXXX       ",
"                  XXXXX       ",
"                   XXX        ",
"                   XXX        ",
"                    X         ",
"                    X         ",
"                              "};
