/* XPM */
static char * image_name[] = {
"30 38 3 1",
" 	c #F7F7FBFBF7F7",
".	c #000000000000",
"X	c #B7B700000000",
"                              ",
"                              ",
"                              ",
"            .                 ",
"           ..                 ",
"           ..      ...        ",
"            .     .....       ",
"            .    ..           ",
"            .   .             ",
"               .              ",
"            ..                ",
"            .                 ",
"          .  .   . ..         ",
"         .    .......         ",
"                              ",
"                 XXX          ",
"                X XX          ",
"            X     X           ",
"            XX   X  X         ",
"             XX XXXX X        ",
"            XXX               ",
"        XXX      XXX          ",
"           XXXXX   X          ",
"            X  X  XX          ",
"           XX XXX  X          ",
"            X  X  XX          ",
"         X XX XX XX  XXX      ",
"         X  X  X   XXXXX      ",
"         X  X XXXX   XXX      ",
"         XXXXX X  X  XXX      ",
"       XXXX    X XXX XXX      ",
"    XX   XX   XXX  X XX       ",
"         XX X      X XXX      ",
"         XX      X   XX       ",
"         XX       X  XX       ",
"          X        XXXX       ",
"                    XX        ",
"                              "};
