/* XPM */
static char * image_name[] = {
"30 38 2 1",
" 	c #F7F7FBFBF7F7",
".	c #000000000000",
"                              ",
"                              ",
"                              ",
"                              ",
"                              ",
"                              ",
"                              ",
"            .                 ",
"            ..                ",
"            ...               ",
"            ..                ",
"            . ...             ",
"           ...                ",
"        ... .                 ",
"            . .               ",
"           .   .              ",
"      .   ..... ...           ",
"       ....   .    ...        ",
"    ... .    .       ...      ",
"    .    .  . .      ...      ",
"    .    ... ...     ...      ",
"     .  .  ..        ...      ",
"     .   ......      ...      ",
"     .. .  ..       ...       ",
"     ..    ..       ...       ",
"     ..    ..       ...       ",
"           ..       ...       ",
"           . .      ..        ",
"           .   .   ...        ",
"                 ....         ",
"                  ...         ",
"                              ",
"                              ",
"                              ",
"                              ",
"                              ",
"                              ",
"                              "};
