/* XPM */
static char * image_name[] = {
"30 38 4 1",
" 	c #F7F7FBFBF7F7",
".	c #000000000000",
"X	c #0000BBBB0000",
"o	c #B7B700000000",
"                              ",
"                              ",
"                              ",
"                              ",
"                              ",
"           ........           ",
"         ..XXXXXXXX..         ",
"       ..XXXXXXXXXXXX..       ",
"      .XXXX        XXXX.      ",
"     .XXX  ........  XXX.     ",
"    .XXX ..XXXooXXX.. XXX.    ",
"   .XXX .XX  oooo  XX. XXX.   ",
"  .XXX .X   oo..oo   X. XXX.  ",
"  .XX .X    oo..oo    X. XX.  ",
" .XX .X      oooo      X. XX. ",
" .XX .Xoo   X.oo.X   ooX. XX. ",
".XX .Xoooo X.XXXX.X ooooX. XX.",
".XX .oo..oo.XXXXXX.oo..oo. XX.",
".XX .oo..ooXXX..XXXoo..oo. XX.",
".XX .Xoooo.XX....XX.ooooX. XX.",
".XX .X ooX.XX....XX.Xoo X. XX.",
".XX .X   X.XXX..XXX.X   X. XX.",
".XX .X   XX.XXXXXX.X    X. XX.",
".XX .X    oo.XXXX.oo    X. XX.",
" .XX .X  oooo....oooo  X. XX. ",
" .XX .X oo..ooXXoo..oo X. XX. ",
"  .XX .Xoo..oo  oo..ooX. XX.  ",
"  .XXX .Xoooo    ooooX. XXX.  ",
"   .XXX .Xoo      ooX. XXX.   ",
"    .XXX ..XXXXXXXX.. XXX.    ",
"     .XXX  ........  XXX.     ",
"      .XXXX        XXXX.      ",
"       ..XXXXXXXXXXXX..       ",
"         ..XXXXXXXX..         ",
"           ........           ",
"                              ",
"                              ",
"                              "};
