/* XPM */
static char * image_name[] = {
"30 38 5 1",
" 	c #F7F7FBFBF7F7",
".	c #000000000000",
"X	c #00000000B7B7",
"o	c #B7B700000000",
"O	c #0000BBBB0000",
"                              ",
"      ....                    ",
"    ........                  ",
"   ...X  X...                 ",
"   ..XX..XX..                 ",
"  ..XXX  XXX..                ",
"  .. . .. . ..                ",
"  .. . .. . ..                ",
"  ..XXX  XXX..                ",
"   ..XX..XX..                 ",
"   ...X  X...                 ",
"    ........                  ",
"      ....                    ",
"             ....             ",
"           ........           ",
"          ...o  o...          ",
"          ..oo..oo..          ",
"         ..ooo  ooo..         ",
"         .. . .. . ..         ",
"         .. . .. . ..         ",
"         ..ooo  ooo..         ",
"          ..oo..oo..          ",
"          ...o  o...          ",
"           ........           ",
"             ....             ",
"                    ....      ",
"                  ........    ",
"                 ...O  O...   ",
"                 ..OO..OO..   ",
"                ..OOO  OOO..  ",
"                .. . .. . ..  ",
"                .. . .. . ..  ",
"                ..OOO  OOO..  ",
"                 ..OO..OO..   ",
"                 ...O  O...   ",
"                  ........    ",
"                    ....      ",
"                              "};
