/* XPM */
static char * image_name[] = {
"30 38 5 1",
" 	c #F7F7FBFBF7F7",
".	c #000000000000",
"X	c #00000000B7B7",
"o	c #0000BBBB0000",
"O	c #B7B700000000",
"                              ",
"      ....          ....      ",
"    ........      ........    ",
"   ...X  X...    ...o  o...   ",
"   ..XX..XX..    ..oo..oo..   ",
"  ..XXX  XXX..  ..ooo  ooo..  ",
"  .. . .. . ..  .. . .. . ..  ",
"  .. . .. . ..  .. . .. . ..  ",
"  ..XXX  XXX..  ..ooo  ooo..  ",
"   ..XX..XX..    ..oo..oo..   ",
"   ...X  X...    ...o  o...   ",
"    ........      ........    ",
"      ....          ....      ",
"             ....             ",
"           ........           ",
"          ...O  O...          ",
"          ..OO..OO..          ",
"         ..OOO  OOO..         ",
"         .. . .. . ..         ",
"         .. . .. . ..         ",
"         ..OOO  OOO..         ",
"          ..OO..OO..          ",
"          ...O  O...          ",
"           ........           ",
"             ....             ",
"      ....          ....      ",
"    ........      ........    ",
"   ...o  o...    ...X  X...   ",
"   ..oo..oo..    ..XX..XX..   ",
"  ..ooo  ooo..  ..XXX  XXX..  ",
"  .. . .. . ..  .. . .. . ..  ",
"  .. . .. . ..  .. . .. . ..  ",
"  ..ooo  ooo..  ..XXX  XXX..  ",
"   ..oo..oo..    ..XX..XX..   ",
"   ...o  o...    ...X  X...   ",
"    ........      ........    ",
"      ....          ....      ",
"                              "};
