/* XPM */
static char * image_name[] = {
"30 38 4 1",
" 	c #F7F7FBFBF7F7",
".	c #00000000B7B7",
"X	c #000000000000",
"o	c #B7B700000000",
"                              ",
"    ....                      ",
"   .XXXX.                     ",
"  .X.XX.X.                    ",
" .X. .. .X.                   ",
" .XX.XX.XX.  ....             ",
" .XX.XX.XX. .XXXX.            ",
" .X. .. .X..X.XX.X.           ",
"  .X.XX.X..X. .. .X.          ",
"   .XXXX. .XX.XX.XX.  ....    ",
"    ....  .XX.XX.XX. .XXXX.   ",
"          .X. .. .X..X.XX.X.  ",
"           .X.XX.X..X. .. .X. ",
"            .XXXX. .XX.XX XX. ",
"             ....  .XX.XX.XX. ",
"                   .X. .. .X. ",
"                    .X.XX.X.  ",
"                     .XXXX.   ",
"                      ....    ",
"       oooo        oooo       ",
"      oXXXXo      oXXXXo      ",
"     oXoXXoXo    oXoXXoXo     ",
"    oXo oo oXo  oXo oo oXo    ",
"    oXXoXXoXXo  oXXoXXoXXo    ",
"    oXXoXXoXXo  oXXoXXoXXo    ",
"    oXo oo oXo  oXo oo oXo    ",
"     oXoXXoXo    oXoXXoXo     ",
"      oXXXXo      oXXXXo      ",
"       oooo        oooo       ",
"      oXXXXo      oXXXXo      ",
"     oXoXXoXo    oXoXXoXo     ",
"    oXo oo oXo  oXo oo oXo    ",
"    oXXoXXoXXo  oXXoXXoXXo    ",
"    oXXoXXoXXo  oXXoXXoXXo    ",
"    oXo oo oXo  oXo oo oXo    ",
"     oXoXXoXo    oXoXXoXo     ",
"      oXXXXo      oXXXXo      ",
"       oooo        oooo       "};
