/* XPM */
static char * image_name[] = {
"30 38 3 1",
" 	c #F7F7FBFBF7F7",
".	c #00000000B7B7",
"X	c #000000000000",
"                              ",
"       ....        ....       ",
"      .XXXX.      .XXXX.      ",
"     .X.XX.X.    .X.XX.X.     ",
"    .X. .. .X.  .X. .. .X.    ",
"    .XX.XX.XX.  .XX.XX.XX.    ",
"    .XX.XX.XX.  .XX.XX.XX.    ",
"    .X. .. .X.  .X. .. .X.    ",
"     .X.XX.X.    .X.XX.X.     ",
"      .XXXX.      .XXXX.      ",
"       ....        ....       ",
"      .XXXX.      .XXXX.      ",
"     .X.XX.X.    .X.XX.X.     ",
"    .X. .. .X.  .X. .. .X.    ",
"    .XX.XX.XX.  .XX.XX.XX.    ",
"    .XX.XX.XX.  .XX.XX.XX.    ",
"    .X. .. .X.  .X. .. .X.    ",
"     .X.XX.X.    .X.XX.X.     ",
"      .XXXX.      .XXXX.      ",
"       ....        ....       ",
"      .XXXX.      .XXXX.      ",
"     .X.XX.X.    .X.XX.X.     ",
"    .X. .. .X.  .X. .. .X.    ",
"    .XX.XX.XX.  .XX.XX.XX.    ",
"    .XX.XX.XX.  .XX.XX.XX.    ",
"    .X. .. .X.  .X. .. .X.    ",
"     .X.XX.X.    .X.XX.X.     ",
"      .XXXX.      .XXXX.      ",
"       ....        ....       ",
"      .XXXX.      .XXXX.      ",
"     .X.XX.X.    .X.XX.X.     ",
"    .X. .. .X.  .X. .. .X.    ",
"    .XX.XX.XX.  .XX.XX.XX.    ",
"    .XX.XX.XX.  .XX.XX.XX.    ",
"    .X. .. .X.  .X. .. .X.    ",
"     .X.XX.X.    .X.XX.X.     ",
"      .XXXX.      .XXXX.      ",
"       ....        ....       "};
