/* XPM */
static char * image_name[] = {
"30 38 5 1",
" 	c #F7F7FBFBF7F7",
".	c #00000000B7B7",
"X	c #000000000000",
"o	c #B7B700000000",
"O	c #0000BBBB0000",
"                              ",
"                              ",
"                              ",
"   ....       ...      ....   ",
"  .XXXX.    .XXXX.    .XXXX.  ",
" .X.XX.X.  .X.XX.X.  .X.XX.X. ",
".X..  ..X..X..  ..X..X..  ..X.",
".XX XX XX..XX XX XX..XX XX XX.",
".XX XX XX..XX XX XX..XX XX XX.",
".X..  ..X..X..  ..X..X..  ..X.",
" .X.XX.X.  .X.XX.X.  .X.XX.X. ",
"  .XXXX.    .XXXX.    .XXXX.  ",
"   ....      ....      ....   ",
"                              ",
"                              ",
"   oooo      oooo      oooo   ",
"  oXXXXo    oXXXXo    oXXXXo  ",
" oXoXXoXo  oXoXXoXo  oXoXXoXo ",
"oXoo  ooXooXoo  ooXooXoo  ooXo",
"oXX XX XXooXX XX XXooXX XX XXo",
"oXX XX XXooXX XX XXooXX XX XXo",
"oXoo  ooXooXoo  ooXooXoo  ooXo",
" oXoXXoXo  oXoXXoXo  oXoXXoXo ",
"  oXXXXo    oXXXXo    oXXXXo  ",
"   oooo      oooo      oooo   ",
"                              ",
"   OOOO      OOOO      OOOO   ",
"  OXXXXO    OXXXXO    OXXXXO  ",
" OXOXXOXO  OXOXXOXO  OXOXXOXO ",
"OXOO  OOXOOXOO  OOXOOXOO  OOXO",
"OXX XX XXOOXX XX XXOOXX XX XXO",
"OXX XX XXOOXX XX XXOOXX XX XXO",
"OXOO  OOXOOXOO  OOXOOXOO  OOXO",
" OXOXXOXO  OXOXXOXO  OXOXXOXO ",
"  OXXXXO    OXXXXO    OXXXXO  ",
"   OOOO      OOOO      OOOO   ",
"                              ",
"                              "};
