/* XPM */
static char * image_name[] = {
"30 38 8 1",
" 	c #F7F7FBFBF7F7",
".	c #00000000B7B7",
"X	c #0000BBBB0000",
"o	c #B7B700000000",
"O	c #B7B7BBBB0000",
"+	c #000000000000",
"@	c #0000BBBBB7B7",
"#	c #B7B70000B7B7",
"                              ",
"                      .       ",
"     .             ...        ",
"      .         . ...         ",
"      .. .    . ....          ",
"       ....   ....... .       ",
"        ...............    .  ",
" .       ..   .   .   .  ..   ",
"  ..     .. . . . . . ....    ",
"   ...  ...   .   .   ...     ",
"     ...................      ",
"      ...   .   .   .   ..    ",
"       .. . . . . . . . .     ",
"     ....   .   .   .   ...   ",
"      ....................... ",
"    .......   .   .   .....   ",
"  ..  ..... . . . . . ...     ",
"         ..   .   .   .       ",
"          ..............      ",
"           ...........    XXX ",
"            XXXXX...     X    ",
" oo   XXX  XOXOXOXX     X     ",
"   o X + XXOXOXOXOXX   X  XXX ",
" o  o  + XOXOXOXOX@@XXX XX    ",
"  oo o   XXOXOXOX  @XX X      ",
"    oo  XXOXOXOXX@@X @X       ",
"     X  XOXOXXX@ XX@ X@X      ",
"    XXX  XXX   X@ X@X @XX     ",
"   X@XXX      X X@ X@@X@@X    ",
"  X X @X     X   X@ XX@  @X  X",
" X@XXXX XXXXX     XXXXXXXXXXX ",
" XXX       #      #           ",
"X          #o     #o          ",
"           #      #           ",
"        ooooo    ooo          ",
"       o  o     o  o          ",
"      o  o     o  o           ",
"                              "};
