/* XPM */
static char * image_name[] = {
"30 38 3 1",
" 	c #F7F7FBFBF7F7",
".	c #B7B700000000",
"X	c #0000BBBB0000",
"                              ",
"                              ",
"            ......            ",
"           ...  ...           ",
"             .  .             ",
"             .  .             ",
"             .  .             ",
"           ........           ",
"            ..  ..            ",
"             .  .             ",
"             .  .             ",
"           ...  ...           ",
"            ......            ",
"                              ",
"  XXXXXX    XXXXXX    XXXXXX  ",
" XXX  XXX  XXX  XXX  XXX  XXX ",
"   X  X      X  X      X  X   ",
"   X  X      X  X      X  X   ",
"   X  X      X  X      X  X   ",
" XXXXXXXX  XXXXXXXX  XXXXXXXX ",
"  XX  XX    XX  XX    XX  XX  ",
"   X  X      X  X      X  X   ",
"   X  X      X  X      X  X   ",
" XXX  XXX  XXX  XXX  XXX  XXX ",
"  XXXXXX    XXXXXX    XXXXXX  ",
"                              ",
"  XXXXXX    XXXXXX    XXXXXX  ",
" XXX  XXX  XXX  XXX  XXX  XXX ",
"   X  X      X  X      X  X   ",
"   X  X      X  X      X  X   ",
"   X  X      X  X      X  X   ",
" XXXXXXXX  XXXXXXXX  XXXXXXXX ",
"  XX  XX    XX  XX    XX  XX  ",
"   X  X      X  X      X  X   ",
"   X  X      X  X      X  X   ",
" XXX  XXX  XXX  XXX  XXX  XXX ",
"  XXXXXX    XXXXXX    XXXXXX  ",
"                              "};
