/* XPM */
static char * image_name[] = {
"30 38 3 1",
" 	c #F7F7FBFBF7F7",
".	c #0000BBBB0000",
"X	c #B7B700000000",
"                              ",
"                              ",
"  ......    XXXXXX    ......  ",
" ...  ...  XXX  XXX  ...  ... ",
"   .  .      X  X      .  .   ",
"   .  .      X  X      .  .   ",
"   .  .      X  X      .  .   ",
" ........  XXXXXXXX  ........ ",
"  ..  ..    XX  XX    ..  ..  ",
"   .  .      X  X      .  .   ",
"   .  .      X  X      .  .   ",
" ...  ...  XXX  XXX  ...  ... ",
"  ......    XXXXXX    ......  ",
"                              ",
"  ......    XXXXXX    ......  ",
" ...  ...  XXX  XXX  ...  ... ",
"   .  .      X  X      .  .   ",
"   .  .      X  X      .  .   ",
"   .  .      X  X      .  .   ",
" ........  XXXXXXXX  ........ ",
"  ..  ..    XX  XX    ..  ..  ",
"   .  .      X  X      .  .   ",
"   .  .      X  X      .  .   ",
" ...  ...  XXX  XXX  ...  ... ",
"  ......    XXXXXX    ......  ",
"                              ",
"  ......    XXXXXX    ......  ",
" ...  ...  XXX  XXX  ...  ... ",
"   .  .      X  X      .  .   ",
"   .  .      X  X      .  .   ",
"   .  .      X  X      .  .   ",
" ........  XXXXXXXX  ........ ",
"  ..  ..    XX  XX    ..  ..  ",
"   .  .      X  X      .  .   ",
"   .  .      X  X      .  .   ",
" ...  ...  XXX  XXX  ...  ... ",
"  ......    XXXXXX    ......  ",
"                              "};
